solid iPhone Ball Lens Holder v2
facet normal -2.87961298458055e-16 2.9061963554873e-16 1.0
outer loop
vertex 13.3821318498401 7.2702260878188e-16 2.50000000000001
vertex 0.0243138217487033 13.8390402693576 2.5
vertex -7.19903246145138e-16 7.2702260878188e-16 2.5
endloop
endfacet
facet normal -2.87961298458055e-16 2.9061963554873e-16 1.0
outer loop
vertex 0.0243138217487033 13.8390402693576 2.5
vertex 13.3821318498401 7.2702260878188e-16 2.50000000000001
vertex 0.24753097597935 15.9154959845262 2.5
endloop
endfacet
facet normal -2.87961298458055e-16 2.9061963554873e-16 1.0
outer loop
vertex 0.24753097597935 15.9154959845262 2.5
vertex 13.3821318498401 7.2702260878188e-16 2.50000000000001
vertex 1.0005684755191 17.8634253362446 2.5
endloop
endfacet
facet normal -2.87961298458055e-16 2.9061963554873e-16 1.0
outer loop
vertex 1.0005684755191 17.8634253362446 2.5
vertex 13.3821318498401 7.2702260878188e-16 2.50000000000001
vertex 2.23210805922762 19.5500801582987 2.5
endloop
endfacet
facet normal -2.87961298458055e-16 2.9061963554873e-16 1.0
outer loop
vertex 2.23210805922762 19.5500801582987 2.5
vertex 13.3821318498401 7.2702260878188e-16 2.50000000000001
vertex 3.85822233969056 20.8605177118944 2.5
endloop
endfacet
facet normal -2.87961298458055e-16 2.9061963554873e-16 1.0
outer loop
vertex 3.85822233969056 20.8605177118944 2.5
vertex 13.3821318498401 7.2702260878188e-16 2.50000000000001
vertex 5.7680943159753 21.7054338433544 2.5
endloop
endfacet
facet normal -2.87961298458055e-16 2.9061963554873e-16 1.0
outer loop
vertex 5.7680943159753 21.7054338433544 2.5
vertex 13.3821318498401 7.2702260878188e-16 2.50000000000001
vertex 7.6568495982086 22.0 2.5
endloop
endfacet
facet normal -2.87961298458055e-16 2.9061963554873e-16 1.0
outer loop
vertex 7.6568495982086 22.0 2.5
vertex 13.3821318498401 7.2702260878188e-16 2.50000000000001
vertex 8.08504972848958 22.0 2.5
endloop
endfacet
facet normal -2.87961298458055e-16 2.9061963554873e-16 1.0
outer loop
vertex 8.08504972848958 22.0 2.5
vertex 13.3821318498401 7.2702260878188e-16 2.50000000000001
vertex 22.0 22.0 2.5
endloop
endfacet
facet normal -2.87961298458055e-16 2.9061963554873e-16 1.0
outer loop
vertex 22.0 22.0 2.5
vertex 13.3821318498401 7.2702260878188e-16 2.50000000000001
vertex 14.5598268506785 7.38038102854333e-16 2.50000000000001
endloop
endfacet
facet normal -2.87961298458055e-16 2.9061963554873e-16 1.0
outer loop
vertex 22.0 22.0 2.5
vertex 14.5598268506785 7.38038102854333e-16 2.50000000000001
vertex 15.9577052714086 0.15635737025474 2.50000000000001
endloop
endfacet
facet normal -2.87961298458055e-16 2.9061963554873e-16 1.0
outer loop
vertex 22.0 22.0 2.5
vertex 15.9577052714086 0.15635737025474 2.50000000000001
vertex 17.9023766875424 0.917768769086875 2.50000000000001
endloop
endfacet
facet normal -2.87961298458055e-16 2.9061963554873e-16 1.0
outer loop
vertex 22.0 22.0 2.5
vertex 17.9023766875424 0.917768769086875 2.50000000000001
vertex 19.5837172608562 2.15655370261162 2.50000000000001
endloop
endfacet
facet normal -2.87961298458055e-16 2.9061963554873e-16 1.0
outer loop
vertex 22.0 22.0 2.5
vertex 19.5837172608562 2.15655370261162 2.50000000000001
vertex 20.8871464098255 3.78829102479818 2.50000000000001
endloop
endfacet
facet normal -2.87961298458055e-16 2.9061963554873e-16 1.0
outer loop
vertex 22.0 22.0 2.5
vertex 20.8871464098255 3.78829102479818 2.50000000000001
vertex 21.7238375919664 5.70178053371296 2.50000000000001
endloop
endfacet
facet normal -2.87961298458055e-16 2.9061963554873e-16 1.0
outer loop
vertex 22.0 22.0 2.5
vertex 21.7238375919664 5.70178053371296 2.50000000000001
vertex 22.0 7.52398958320846 2.50000000000001
endloop
endfacet
facet normal -2.87961298458055e-16 2.9061963554873e-16 1.0
outer loop
vertex 22.0 22.0 2.5
vertex 22.0 7.52398958320846 2.50000000000001
vertex 22.0 8.09537019099816 2.50000000000001
endloop
endfacet
facet normal 2.87961298458055e-16 -2.9061963554873e-16 -1.0
outer loop
vertex 0.024313821748704 13.8390402693576 0.0
vertex 13.3821318498401 0.0 5.64284724651847e-15
vertex 0.0 0.0 0.0
endloop
endfacet
facet normal 2.87961298458055e-16 -2.9061963554873e-16 -1.0
outer loop
vertex 13.3821318498401 0.0 5.64284724651847e-15
vertex 0.024313821748704 13.8390402693576 0.0
vertex 0.24753097597935 15.9154959845262 0.0
endloop
endfacet
facet normal 2.87961298458055e-16 -2.9061963554873e-16 -1.0
outer loop
vertex 13.3821318498401 0.0 5.64284724651847e-15
vertex 0.24753097597935 15.9154959845262 0.0
vertex 1.0005684755191 17.8634253362446 0.0
endloop
endfacet
facet normal 2.87961298458055e-16 -2.9061963554873e-16 -1.0
outer loop
vertex 13.3821318498401 0.0 5.64284724651847e-15
vertex 1.0005684755191 17.8634253362446 0.0
vertex 2.23210805922762 19.5500801582987 0.0
endloop
endfacet
facet normal 2.87961298458055e-16 -2.9061963554873e-16 -1.0
outer loop
vertex 13.3821318498401 0.0 5.64284724651847e-15
vertex 2.23210805922762 19.5500801582987 0.0
vertex 3.85822233969057 20.8605177118944 0.0
endloop
endfacet
facet normal 2.87961298458055e-16 -2.9061963554873e-16 -1.0
outer loop
vertex 13.3821318498401 0.0 5.64284724651847e-15
vertex 3.85822233969057 20.8605177118944 0.0
vertex 5.7680943159753 21.7054338433544 0.0
endloop
endfacet
facet normal 2.87961298458055e-16 -2.9061963554873e-16 -1.0
outer loop
vertex 13.3821318498401 0.0 5.64284724651847e-15
vertex 5.7680943159753 21.7054338433544 0.0
vertex 7.6568495982086 22.0 0.0
endloop
endfacet
facet normal 2.87961298458055e-16 -2.9061963554873e-16 -1.0
outer loop
vertex 13.3821318498401 0.0 5.64284724651847e-15
vertex 7.6568495982086 22.0 0.0
vertex 8.08504972848959 22.0 0.0
endloop
endfacet
facet normal 2.87961298458055e-16 -2.9061963554873e-16 -1.0
outer loop
vertex 13.3821318498401 0.0 5.64284724651847e-15
vertex 8.08504972848959 22.0 0.0
vertex 22.0 22.0 0.0
endloop
endfacet
facet normal 2.87961298458055e-16 -2.9061963554873e-16 -1.0
outer loop
vertex 13.3821318498401 0.0 5.64284724651847e-15
vertex 22.0 22.0 0.0
vertex 14.5598268506785 1.10154940724527e-17 5.64284724651847e-15
endloop
endfacet
facet normal 2.87961298458055e-16 -2.9061963554873e-16 -1.0
outer loop
vertex 14.5598268506785 1.10154940724527e-17 5.64284724651847e-15
vertex 22.0 22.0 0.0
vertex 15.9577052714086 0.156357370254739 1.12856944930369e-14
endloop
endfacet
facet normal 2.87961298458055e-16 -2.9061963554873e-16 -1.0
outer loop
vertex 15.9577052714086 0.156357370254739 1.12856944930369e-14
vertex 22.0 22.0 0.0
vertex 17.9023766875424 0.917768769086874 1.12856944930369e-14
endloop
endfacet
facet normal 2.87961298458055e-16 -2.9061963554873e-16 -1.0
outer loop
vertex 17.9023766875424 0.917768769086874 1.12856944930369e-14
vertex 22.0 22.0 0.0
vertex 19.5837172608562 2.15655370261162 1.12856944930369e-14
endloop
endfacet
facet normal 2.87961298458055e-16 -2.9061963554873e-16 -1.0
outer loop
vertex 19.5837172608562 2.15655370261162 1.12856944930369e-14
vertex 22.0 22.0 0.0
vertex 20.8871464098255 3.78829102479818 1.12856944930369e-14
endloop
endfacet
facet normal 2.87961298458055e-16 -2.9061963554873e-16 -1.0
outer loop
vertex 20.8871464098255 3.78829102479818 1.12856944930369e-14
vertex 22.0 22.0 0.0
vertex 21.7238375919664 5.70178053371296 1.12856944930369e-14
endloop
endfacet
facet normal 2.87961298458055e-16 -2.9061963554873e-16 -1.0
outer loop
vertex 21.7238375919664 5.70178053371296 1.12856944930369e-14
vertex 22.0 22.0 0.0
vertex 22.0 7.52398958320846 5.64284724651847e-15
endloop
endfacet
facet normal 2.87961298458055e-16 -2.9061963554873e-16 -1.0
outer loop
vertex 22.0 7.52398958320846 5.64284724651847e-15
vertex 22.0 22.0 0.0
vertex 22.0 8.09537019099816 5.64284724651847e-15
endloop
endfacet
facet normal 0.693177895432277 -0.720766540069723 4.09077316021883e-16
outer loop
vertex 19.5837172608562 2.15655370261162 2.50000000000001
vertex 17.9023766875424 0.917768769086874 1.12856944930369e-14
vertex 19.5837172608562 2.15655370261162 1.12856944930369e-14
endloop
endfacet
facet normal 0.483010323768046 -0.875614656760317 3.93559092429702e-16
outer loop
vertex 17.9023766875424 0.917768769086874 1.12856944930369e-14
vertex 19.5837172608562 2.15655370261162 2.50000000000001
vertex 17.9023766875424 0.917768769086875 2.50000000000001
endloop
endfacet
facet normal 0.856106539053433 -0.516799374796403 3.967175965594e-16
outer loop
vertex 20.8871464098255 3.78829102479818 1.12856944930369e-14
vertex 19.5837172608562 2.15655370261162 2.50000000000001
vertex 19.5837172608562 2.15655370261162 1.12856944930369e-14
endloop
endfacet
facet normal 0.693177895432277 -0.720766540069723 4.09077316021883e-16
outer loop
vertex 19.5837172608562 2.15655370261162 2.50000000000001
vertex 20.8871464098255 3.78829102479818 1.12856944930369e-14
vertex 20.8871464098255 3.78829102479818 2.50000000000001
endloop
endfacet
facet normal 0.483010323768046 -0.875614656760317 3.93559092429702e-16
outer loop
vertex 17.9023766875424 0.917768769086875 2.50000000000001
vertex 15.9577052714086 0.156357370254739 1.12856944930369e-14
vertex 17.9023766875424 0.917768769086874 1.12856944930369e-14
endloop
endfacet
facet normal 0.239926396751324 -0.970791081614333 3.35106048480239e-16
outer loop
vertex 15.9577052714086 0.156357370254739 1.12856944930369e-14
vertex 17.9023766875424 0.917768769086875 2.50000000000001
vertex 15.9577052714086 0.15635737025474 2.50000000000001
endloop
endfacet
facet normal 0.239926396751324 -0.970791081614333 3.35106048480239e-16
outer loop
vertex 15.9577052714086 0.156357370254739 1.12856944930369e-14
vertex 14.5598268506785 7.38038102854333e-16 2.50000000000001
vertex 14.5598268506785 1.10154940724527e-17 5.64284724651847e-15
endloop
endfacet
facet normal 0.11116012984273 -0.993802508315082 2.8887522307945e-16
outer loop
vertex 14.5598268506785 7.38038102854333e-16 2.50000000000001
vertex 15.9577052714086 0.156357370254739 1.12856944930369e-14
vertex 15.9577052714086 0.15635737025474 2.50000000000001
endloop
endfacet
facet normal -1.24463090182149e-31 -1.0 2.9061963554873e-16
outer loop
vertex 13.3821318498401 0.0 5.64284724651847e-15
vertex -7.19903246145138e-16 7.2702260878188e-16 2.5
vertex 0.0 0.0 0.0
endloop
endfacet
facet normal -1.24463090182149e-31 -1.0 2.9061963554873e-16
outer loop
vertex -7.19903246145138e-16 7.2702260878188e-16 2.5
vertex 13.3821318498401 0.0 5.64284724651847e-15
vertex 13.3821318498401 7.2702260878188e-16 2.50000000000001
endloop
endfacet
facet normal 0.988709867671761 -0.149842575953861 6.450123971128e-17
outer loop
vertex 22.0 7.52398958320846 5.64284724651847e-15
vertex 21.7238375919664 5.70178053371296 2.50000000000001
vertex 21.7238375919664 5.70178053371296 1.12856944930369e-14
endloop
endfacet
facet normal 0.960692936821047 -0.277613186182056 2.24306191666033e-16
outer loop
vertex 21.7238375919664 5.70178053371296 2.50000000000001
vertex 22.0 7.52398958320846 5.64284724651847e-15
vertex 22.0 7.52398958320846 2.50000000000001
endloop
endfacet
facet normal -0.877684680317098 0.479238564742732 -3.92015357207284e-16
outer loop
vertex 1.0005684755191 17.8634253362446 2.5
vertex 0.24753097597935 15.9154959845262 0.0
vertex 0.24753097597935 15.9154959845262 2.5
endloop
endfacet
facet normal -0.971814367759566 0.235747395777929 -3.48357749442782e-16
outer loop
vertex 0.24753097597935 15.9154959845262 0.0
vertex 1.0005684755191 17.8634253362446 2.5
vertex 1.0005684755191 17.8634253362446 0.0
endloop
endfacet
facet normal 1.0 0.0 0.0
outer loop
vertex 22.0 8.09537019099816 5.64284724651847e-15
vertex 22.0 7.52398958320846 2.50000000000001
vertex 22.0 7.52398958320846 5.64284724651847e-15
endloop
endfacet
facet normal 1.0 0.0 0.0
outer loop
vertex 22.0 7.52398958320846 2.50000000000001
vertex 22.0 8.09537019099816 5.64284724651847e-15
vertex 22.0 8.09537019099816 2.50000000000001
endloop
endfacet
facet normal -0.723742232353533 0.690070417499493 -4.08957766214118e-16
outer loop
vertex 2.23210805922762 19.5500801582987 2.5
vertex 3.85822233969057 20.8605177118944 0.0
vertex 2.23210805922762 19.5500801582987 0.0
endloop
endfacet
facet normal -0.520477947295662 0.85387511169895 -3.98030379288122e-16
outer loop
vertex 3.85822233969057 20.8605177118944 0.0
vertex 2.23210805922762 19.5500801582987 2.5
vertex 3.85822233969056 20.8605177118944 2.5
endloop
endfacet
facet normal -0.520477947295662 0.85387511169895 -3.98030379288122e-16
outer loop
vertex 3.85822233969056 20.8605177118944 2.5
vertex 5.7680943159753 21.7054338433544 0.0
vertex 3.85822233969057 20.8605177118944 0.0
endloop
endfacet
facet normal -0.281743950260068 0.959489628131463 -2.25836585659077e-16
outer loop
vertex 5.7680943159753 21.7054338433544 0.0
vertex 3.85822233969056 20.8605177118944 2.5
vertex 5.7680943159753 21.7054338433544 2.5
endloop
endfacet
facet normal -0.999998456653257 0.00175689814834068 -2.8847144313349e-16
outer loop
vertex -7.19903246145138e-16 7.2702260878188e-16 2.5
vertex 0.024313821748704 13.8390402693576 0.0
vertex 0.0 0.0 0.0
endloop
endfacet
facet normal -0.999998456653257 0.00175689814834068 -2.8847144313349e-16
outer loop
vertex 0.024313821748704 13.8390402693576 0.0
vertex -7.19903246145138e-16 7.2702260878188e-16 2.5
vertex 0.0243138217487033 13.8390402693576 2.5
endloop
endfacet
facet normal -0.281743950260068 0.959489628131463 -2.25836585659077e-16
outer loop
vertex 5.7680943159753 21.7054338433544 2.5
vertex 7.6568495982086 22.0 0.0
vertex 5.7680943159753 21.7054338433544 0.0
endloop
endfacet
facet normal -0.154095064073871 0.988056026360889 -6.55345034912572e-17
outer loop
vertex 7.6568495982086 22.0 0.0
vertex 5.7680943159753 21.7054338433544 2.5
vertex 7.6568495982086 22.0 2.5
endloop
endfacet
facet normal 0.960692936821046 -0.277613186182056 2.24306191666033e-16
outer loop
vertex 21.7238375919664 5.70178053371296 1.12856944930369e-14
vertex 20.8871464098255 3.78829102479818 2.50000000000001
vertex 20.8871464098255 3.78829102479818 1.12856944930369e-14
endloop
endfacet
facet normal 0.856106539053433 -0.516799374796403 3.967175965594e-16
outer loop
vertex 20.8871464098255 3.78829102479818 2.50000000000001
vertex 21.7238375919664 5.70178053371296 1.12856944930369e-14
vertex 21.7238375919664 5.70178053371296 2.50000000000001
endloop
endfacet
facet normal 0.0 1.0 0.0
outer loop
vertex 8.08504972848958 22.0 2.5
vertex 22.0 22.0 0.0
vertex 8.08504972848959 22.0 0.0
endloop
endfacet
facet normal 0.0 1.0 0.0
outer loop
vertex 22.0 22.0 0.0
vertex 8.08504972848958 22.0 2.5
vertex 22.0 22.0 2.5
endloop
endfacet
facet normal -0.723742232353533 0.690070417499493 -4.08957766214118e-16
outer loop
vertex 2.23210805922762 19.5500801582987 2.5
vertex 1.0005684755191 17.8634253362446 0.0
vertex 1.0005684755191 17.8634253362446 2.5
endloop
endfacet
facet normal -0.877684680317098 0.479238564742732 -3.92015357207284e-16
outer loop
vertex 1.0005684755191 17.8634253362446 0.0
vertex 2.23210805922762 19.5500801582987 2.5
vertex 2.23210805922762 19.5500801582987 0.0
endloop
endfacet
facet normal 1.0 0.0 0.0
outer loop
vertex 22.0 22.0 0.0
vertex 22.0 8.09537019099816 2.50000000000001
vertex 22.0 8.09537019099816 5.64284724651847e-15
endloop
endfacet
facet normal 1.0 0.0 0.0
outer loop
vertex 22.0 8.09537019099816 2.50000000000001
vertex 22.0 22.0 0.0
vertex 22.0 22.0 2.5
endloop
endfacet
facet normal -0.971814367759566 0.235747395777929 -3.48357749442782e-16
outer loop
vertex 0.24753097597935 15.9154959845262 2.5
vertex 0.024313821748704 13.8390402693576 0.0
vertex 0.0243138217487033 13.8390402693576 2.5
endloop
endfacet
facet normal -0.994271571021146 0.106883315157892 -3.17374122708606e-16
outer loop
vertex 0.024313821748704 13.8390402693576 0.0
vertex 0.24753097597935 15.9154959845262 2.5
vertex 0.24753097597935 15.9154959845262 0.0
endloop
endfacet
facet normal 9.35343536706109e-18 -1.0 2.9061963554873e-16
outer loop
vertex 14.5598268506785 7.38038102854333e-16 2.50000000000001
vertex 13.3821318498401 0.0 5.64284724651847e-15
vertex 14.5598268506785 1.10154940724527e-17 5.64284724651847e-15
endloop
endfacet
facet normal 9.35343536706109e-18 -1.0 2.9061963554873e-16
outer loop
vertex 13.3821318498401 0.0 5.64284724651847e-15
vertex 14.5598268506785 7.38038102854333e-16 2.50000000000001
vertex 13.3821318498401 7.2702260878188e-16 2.50000000000001
endloop
endfacet
facet normal 0.0 1.0 0.0
outer loop
vertex 7.6568495982086 22.0 2.5
vertex 8.08504972848959 22.0 0.0
vertex 7.6568495982086 22.0 0.0
endloop
endfacet
facet normal 0.0 1.0 0.0
outer loop
vertex 8.08504972848959 22.0 0.0
vertex 7.6568495982086 22.0 2.5
vertex 8.08504972848958 22.0 2.5
endloop
endfacet
facet normal 4.64688138464773e-18 -1.0 3.35501144076971e-16
outer loop
vertex 13.3821318498401 0.0757915653461902 12.0
vertex 2.33918087479569e-15 0.0757915653461902 12.0
vertex 2.9670509018519 0.0757915653461898 12.0
endloop
endfacet
facet normal 4.64688138464773e-18 -1.0 3.35501144076971e-16
outer loop
vertex 2.33918087479569e-15 0.0757915653461902 12.0
vertex 13.3821318498401 0.0757915653461902 12.0
vertex 1.61927762865055e-15 0.0757915653461909 14.5
endloop
endfacet
facet normal 4.64688138464773e-18 -1.0 3.35501144076971e-16
outer loop
vertex 1.61927762865055e-15 0.0757915653461909 14.5
vertex 13.3821318498401 0.0757915653461902 12.0
vertex 13.3821318498401 0.0757915653461909 14.5
endloop
endfacet
facet normal -0.404572119343135 0.914506096343925 -1.08668802504576e-16
outer loop
vertex 3.85822233969057 20.9363092772405 14.5
vertex 5.7680943159753 21.7812254087006 12.0
vertex 3.85822233969057 20.9363092772405 12.0
endloop
endfacet
facet normal -0.404572119343135 0.914506096343925 -1.08668802504576e-16
outer loop
vertex 5.7680943159753 21.7812254087006 12.0
vertex 3.85822233969057 20.9363092772405 14.5
vertex 5.7680943159753 21.7812254087006 14.5
endloop
endfacet
facet normal -0.999998451741095 0.0017596256351708 -1.52655762079327e-05
outer loop
vertex 1.61927762865055e-15 0.0757915653461909 14.5
vertex 0.0243138217487056 13.8390402693576 12.0
vertex 2.33918087479569e-15 0.0757915653461902 12.0
endloop
endfacet
facet normal -0.999998451741095 0.0017596256351708 -1.52655762079327e-05
outer loop
vertex 0.0243138217487056 13.8390402693576 12.0
vertex 1.61927762865055e-15 0.0757915653461909 14.5
vertex 0.0243138217487056 13.9148318347038 14.5
endloop
endfacet
facet normal -0.999998451741095 0.0017596256351708 -1.52655762079327e-05
outer loop
vertex 0.0243138217487056 13.8390402693576 12.0
vertex 0.0243138217487056 13.9148318347038 14.5
vertex 0.0243138217487063 13.9148318347038 12.0
endloop
endfacet
facet normal -0.932729151227773 0.360577773094679 -2.60971599888456e-16
outer loop
vertex 1.0005684755191 17.9392169015908 14.5
vertex 0.247530975979353 15.9912875498724 12.0
vertex 0.247530975979352 15.9912875498724 14.5
endloop
endfacet
facet normal -0.932729151227773 0.360577773094679 -2.60971599888456e-16
outer loop
vertex 0.247530975979353 15.9912875498724 12.0
vertex 1.0005684755191 17.9392169015908 14.5
vertex 1.0005684755191 17.9392169015908 12.0
endloop
endfacet
facet normal 1.0 -0.0 -0.0
outer loop
vertex 22.0 8.17116175634435 12.0
vertex 22.0 7.59978114855465 14.5
vertex 22.0 7.59978114855465 12.0
endloop
endfacet
facet normal 1.0 -0.0 -0.0
outer loop
vertex 22.0 7.59978114855465 14.5
vertex 22.0 8.17116175634435 12.0
vertex 22.0 8.17116175634435 14.5
endloop
endfacet
facet normal -0.62747825326621 0.778634087153899 -1.8258694238507e-16
outer loop
vertex 2.23210805922762 19.6258717236449 14.5
vertex 3.85822233969057 20.9363092772405 12.0
vertex 2.23210805922762 19.6258717236449 12.0
endloop
endfacet
facet normal -0.62747825326621 0.778634087153899 -1.8258694238507e-16
outer loop
vertex 3.85822233969057 20.9363092772405 12.0
vertex 2.23210805922762 19.6258717236449 14.5
vertex 3.85822233969057 20.9363092772405 14.5
endloop
endfacet
facet normal -0.154095064073871 0.988056026360889 -6.55345034912571e-17
outer loop
vertex 5.7680943159753 21.7812254087006 14.5
vertex 7.65684959820861 22.0757915653462 12.0
vertex 5.7680943159753 21.7812254087006 12.0
endloop
endfacet
facet normal -0.154095064073871 0.988056026360889 -6.55345034912571e-17
outer loop
vertex 7.65684959820861 22.0757915653462 12.0
vertex 5.7680943159753 21.7812254087006 14.5
vertex 7.65684959820861 22.0757915653462 14.5
endloop
endfacet
facet normal 0.916238283466921 -0.40063375782576 1.16578530772781e-16
outer loop
vertex 21.7238375919664 5.77757209905915 12.0
vertex 20.8871464098255 3.86408259014437 14.5
vertex 20.8871464098255 3.86408259014437 12.0
endloop
endfacet
facet normal 0.916238283466921 -0.40063375782576 1.16578530772781e-16
outer loop
vertex 20.8871464098255 3.86408259014437 14.5
vertex 21.7238375919664 5.77757209905915 12.0
vertex 21.7238375919664 5.77757209905915 14.5
endloop
endfacet
facet normal -0.0 1.0 -0.0
outer loop
vertex 8.08504972848959 22.0757915653462 14.5
vertex 22.0 22.0757915653462 12.0
vertex 8.08504972848959 22.0757915653462 12.0
endloop
endfacet
facet normal -0.0 1.0 -0.0
outer loop
vertex 22.0 22.0757915653462 12.0
vertex 8.08504972848959 22.0757915653462 14.5
vertex 22.0 22.0757915653462 14.5
endloop
endfacet
facet normal -0.807622781186031 0.589699451678005 -2.1692893877461e-16
outer loop
vertex 2.23210805922762 19.6258717236449 14.5
vertex 1.0005684755191 17.9392169015908 12.0
vertex 1.0005684755191 17.9392169015908 14.5
endloop
endfacet
facet normal -0.807622781186031 0.589699451678005 -2.1692893877461e-16
outer loop
vertex 1.0005684755191 17.9392169015908 12.0
vertex 2.23210805922762 19.6258717236449 14.5
vertex 2.23210805922762 19.6258717236449 12.0
endloop
endfacet
facet normal 1.0 -0.0 -0.0
outer loop
vertex 22.0 19.0835519712237 12.0
vertex 22.0 8.17116175634435 14.5
vertex 22.0 8.17116175634435 12.0
endloop
endfacet
facet normal 1.0 -0.0 -0.0
outer loop
vertex 22.0 8.17116175634435 14.5
vertex 22.0 19.0835519712237 12.0
vertex 22.0 22.0757915653462 14.5
endloop
endfacet
facet normal 1.0 -0.0 -0.0
outer loop
vertex 22.0 22.0757915653462 14.5
vertex 22.0 19.0835519712237 12.0
vertex 22.0 22.0 12.0
endloop
endfacet
facet normal 1.0 -0.0 -0.0
outer loop
vertex 22.0 22.0757915653462 14.5
vertex 22.0 22.0 12.0
vertex 22.0 22.0757915653462 12.0
endloop
endfacet
facet normal -0.994158533705502 0.107925517923453 -0.00094469120877352
outer loop
vertex 0.247530975979352 15.9912875498724 14.5
vertex 0.0243138217487063 13.9148318347038 12.0
vertex 0.0243138217487056 13.9148318347038 14.5
endloop
endfacet
facet normal -0.994158533705502 0.107925517923453 -0.00094469120877352
outer loop
vertex 0.0243138217487063 13.9148318347038 12.0
vertex 0.247530975979352 15.9912875498724 14.5
vertex 0.247530975979352 15.9154959845262 12.0
endloop
endfacet
facet normal -0.994158533705502 0.107925517923453 -0.00094469120877352
outer loop
vertex 0.247530975979352 15.9154959845262 12.0
vertex 0.247530975979352 15.9912875498724 14.5
vertex 0.247530975979353 15.9912875498724 12.0
endloop
endfacet
facet normal 9.35343536706109e-18 -1.0 2.90809043512752e-16
outer loop
vertex 14.5598268506785 0.0757915653461909 14.5
vertex 13.3821318498401 0.0757915653461902 12.0
vertex 14.5598268506785 0.0757915653461902 12.0
endloop
endfacet
facet normal 9.35343536706109e-18 -1.0 2.90809043512752e-16
outer loop
vertex 13.3821318498401 0.0757915653461902 12.0
vertex 14.5598268506785 0.0757915653461909 14.5
vertex 13.3821318498401 0.0757915653461909 14.5
endloop
endfacet
facet normal -0.0 1.0 -0.0
outer loop
vertex 7.65684959820861 22.0757915653462 14.5
vertex 8.08504972848959 22.0757915653462 12.0
vertex 7.65684959820861 22.0757915653462 12.0
endloop
endfacet
facet normal -0.0 1.0 -0.0
outer loop
vertex 8.08504972848959 22.0757915653462 12.0
vertex 7.65684959820861 22.0757915653462 14.5
vertex 8.08504972848959 22.0757915653462 14.5
endloop
endfacet
facet normal 0.988709867671761 -0.149842575953861 2.08992540805352e-17
outer loop
vertex 22.0 7.59978114855465 12.0
vertex 21.7238375919664 5.77757209905915 14.5
vertex 21.7238375919664 5.77757209905915 12.0
endloop
endfacet
facet normal 0.988709867671761 -0.149842575953861 2.08992540805352e-17
outer loop
vertex 21.7238375919664 5.77757209905915 14.5
vertex 22.0 7.59978114855465 12.0
vertex 22.0 7.59978114855465 14.5
endloop
endfacet
facet normal 0.593168750489321 -0.805078153624192 2.16245447212181e-16
outer loop
vertex 19.5837172608562 2.23234526795781 14.5
vertex 17.9023766875424 0.993560334433064 12.0
vertex 19.5837172608562 2.23234526795781 12.0
endloop
endfacet
facet normal 0.593168750489321 -0.805078153624192 2.16245447212181e-16
outer loop
vertex 17.9023766875424 0.993560334433064 12.0
vertex 19.5837172608562 2.23234526795781 14.5
vertex 17.9023766875424 0.993560334433065 14.5
endloop
endfacet
facet normal 0.11116012984273 -0.993802508315081 2.83606476784212e-16
outer loop
vertex 15.9577052714086 0.23214893560093 12.0
vertex 14.5598268506785 0.0757915653461909 14.5
vertex 14.5598268506785 0.0757915653461902 12.0
endloop
endfacet
facet normal 0.11116012984273 -0.993802508315081 2.83606476784212e-16
outer loop
vertex 14.5598268506785 0.0757915653461909 14.5
vertex 15.9577052714086 0.23214893560093 12.0
vertex 15.9577052714086 0.23214893560093 14.5
endloop
endfacet
facet normal 0.364587456491339 -0.931169150353026 2.70956526574844e-16
outer loop
vertex 17.9023766875424 0.993560334433065 14.5
vertex 15.9577052714086 0.23214893560093 12.0
vertex 17.9023766875424 0.993560334433064 12.0
endloop
endfacet
facet normal 0.364587456491339 -0.931169150353026 2.70956526574844e-16
outer loop
vertex 15.9577052714086 0.23214893560093 12.0
vertex 17.9023766875424 0.993560334433065 14.5
vertex 15.9577052714086 0.23214893560093 14.5
endloop
endfacet
facet normal 0.781326574399166 -0.624122411180423 1.67640407721032e-16
outer loop
vertex 20.8871464098255 3.86408259014437 12.0
vertex 19.5837172608562 2.23234526795781 14.5
vertex 19.5837172608562 2.23234526795781 12.0
endloop
endfacet
facet normal 0.781326574399166 -0.624122411180423 1.67640407721032e-16
outer loop
vertex 19.5837172608562 2.23234526795781 14.5
vertex 20.8871464098255 3.86408259014437 12.0
vertex 20.8871464098255 3.86408259014437 14.5
endloop
endfacet
facet normal 7.50265177077744e-16 -8.5067842566339e-16 -1.0
outer loop
vertex 8.72988814951141 18.7889858145781 12.0
vertex 9.55852700089358 11.5308330405552 12.0
vertex 9.51638941493598 11.1415282684949 12.0
endloop
endfacet
facet normal 7.50265177077744e-16 -8.5067842566339e-16 -1.0
outer loop
vertex 9.55852700089358 11.5308330405552 12.0
vertex 8.72988814951141 18.7889858145781 12.0
vertex 10.6186434317447 19.0835519712237 12.0
endloop
endfacet
facet normal 7.50265177077744e-16 -8.5067842566339e-16 -1.0
outer loop
vertex 9.55852700089358 11.5308330405552 12.0
vertex 10.6186434317447 19.0835519712237 12.0
vertex 9.69998827278598 11.8959665644252 12.0
endloop
endfacet
facet normal 7.50265177077744e-16 -8.5067842566339e-16 -1.0
outer loop
vertex 9.69998827278598 11.8959665644252 12.0
vertex 10.6186434317447 19.0835519712237 12.0
vertex 9.93113287870952 12.2120455938651 12.0
endloop
endfacet
facet normal 7.50265177077744e-16 -8.5067842566339e-16 -1.0
outer loop
vertex 9.93113287870952 12.2120455938651 12.0
vertex 10.6186434317447 19.0835519712237 12.0
vertex 10.236208695755 12.4575298653637 12.0
endloop
endfacet
facet normal 7.50265177077744e-16 -8.5067842566339e-16 -1.0
outer loop
vertex 10.236208695755 12.4575298653637 12.0
vertex 10.6186434317447 19.0835519712237 12.0
vertex 10.5944253111525 12.6156900315004 12.0
endloop
endfacet
facet normal 7.50265177077744e-16 -8.5067842566339e-16 -1.0
outer loop
vertex 10.5944253111525 12.6156900315004 12.0
vertex 10.6186434317447 19.0835519712237 12.0
vertex 10.9813708545435 12.6757477383249 12.0
endloop
endfacet
facet normal 7.50265177077744e-16 -8.5067842566339e-16 -1.0
outer loop
vertex 10.9813708545435 12.6757477383249 12.0
vertex 10.6186434317447 19.0835519712237 12.0
vertex 10.7933632026468 19.1108008858336 12.0
endloop
endfacet
facet normal 7.50265177077744e-16 -8.5067842566339e-16 -1.0
outer loop
vertex 10.9813708545435 12.6757477383249 12.0
vertex 10.7933632026468 19.1108008858336 12.0
vertex 11.0468435620257 19.0835519712237 12.0
endloop
endfacet
facet normal 7.50265177077744e-16 -8.5067842566339e-16 -1.0
outer loop
vertex 10.9813708545435 12.6757477383249 12.0
vertex 11.0468435620257 19.0835519712237 12.0
vertex 11.3706756266037 12.6336101523673 12.0
endloop
endfacet
facet normal 7.50265177077744e-16 -8.5067842566339e-16 -1.0
outer loop
vertex 11.3706756266037 12.6336101523673 12.0
vertex 11.0468435620257 19.0835519712237 12.0
vertex 22.0 19.0835519712237 12.0
endloop
endfacet
facet normal 7.50265177077744e-16 -8.5067842566339e-16 -1.0
outer loop
vertex 11.3706756266037 12.6336101523673 12.0
vertex 22.0 19.0835519712237 12.0
vertex 11.7358091504738 12.492148880475 12.0
endloop
endfacet
facet normal 7.50265177077744e-16 -8.5067842566339e-16 -1.0
outer loop
vertex 11.7358091504738 12.492148880475 12.0
vertex 22.0 19.0835519712237 12.0
vertex 12.0518881799137 12.2610042745514 12.0
endloop
endfacet
facet normal 7.50265177077744e-16 -8.5067842566339e-16 -1.0
outer loop
vertex 12.0518881799137 12.2610042745514 12.0
vertex 22.0 19.0835519712237 12.0
vertex 12.2973724514123 11.9559284575059 12.0
endloop
endfacet
facet normal 7.50265177077744e-16 -8.5067842566339e-16 -1.0
outer loop
vertex 12.2973724514123 11.9559284575059 12.0
vertex 22.0 19.0835519712237 12.0
vertex 12.4555326175489 11.5977118421084 12.0
endloop
endfacet
facet normal 7.50265177077744e-16 -8.5067842566339e-16 -1.0
outer loop
vertex 12.4555326175489 11.5977118421084 12.0
vertex 22.0 19.0835519712237 12.0
vertex 12.5155903243735 11.2107662987174 12.0
endloop
endfacet
facet normal 7.50265177077744e-16 -8.5067842566339e-16 -1.0
outer loop
vertex 12.5155903243735 11.2107662987174 12.0
vertex 22.0 19.0835519712237 12.0
vertex 13.3821318498401 0.0757915653461902 12.0
endloop
endfacet
facet normal 7.50265177077744e-16 -8.5067842566339e-16 -1.0
outer loop
vertex 13.3821318498401 0.0757915653461902 12.0
vertex 22.0 19.0835519712237 12.0
vertex 14.5598268506785 0.0757915653461902 12.0
endloop
endfacet
facet normal 7.50265177077744e-16 -8.5067842566339e-16 -1.0
outer loop
vertex 14.5598268506785 0.0757915653461902 12.0
vertex 22.0 19.0835519712237 12.0
vertex 15.9577052714086 0.23214893560093 12.0
endloop
endfacet
facet normal 7.50265177077744e-16 -8.5067842566339e-16 -1.0
outer loop
vertex 15.9577052714086 0.23214893560093 12.0
vertex 22.0 19.0835519712237 12.0
vertex 17.9023766875424 0.993560334433064 12.0
endloop
endfacet
facet normal 7.50265177077744e-16 -8.5067842566339e-16 -1.0
outer loop
vertex 17.9023766875424 0.993560334433064 12.0
vertex 22.0 19.0835519712237 12.0
vertex 19.5837172608562 2.23234526795781 12.0
endloop
endfacet
facet normal 7.50265177077744e-16 -8.5067842566339e-16 -1.0
outer loop
vertex 19.5837172608562 2.23234526795781 12.0
vertex 22.0 19.0835519712237 12.0
vertex 20.8871464098255 3.86408259014437 12.0
endloop
endfacet
facet normal 7.50265177077744e-16 -8.5067842566339e-16 -1.0
outer loop
vertex 20.8871464098255 3.86408259014437 12.0
vertex 22.0 19.0835519712237 12.0
vertex 21.7238375919664 5.77757209905915 12.0
endloop
endfacet
facet normal 7.50265177077744e-16 -8.5067842566339e-16 -1.0
outer loop
vertex 21.7238375919664 5.77757209905915 12.0
vertex 22.0 19.0835519712237 12.0
vertex 22.0 7.59978114855465 12.0
endloop
endfacet
facet normal 7.50265177077744e-16 -8.5067842566339e-16 -1.0
outer loop
vertex 22.0 7.59978114855465 12.0
vertex 22.0 19.0835519712237 12.0
vertex 22.0 8.17116175634435 12.0
endloop
endfacet
facet normal 7.50265177077744e-16 -8.5067842566339e-16 -1.0
outer loop
vertex 2.98610765528482 10.9225922405812 12.0
vertex 13.3821318498401 0.0757915653461902 12.0
vertex 2.9670509018519 0.0757915653461898 12.0
endloop
endfacet
facet normal 7.50265177077744e-16 -8.5067842566339e-16 -1.0
outer loop
vertex 13.3821318498401 0.0757915653461902 12.0
vertex 2.98610765528482 10.9225922405812 12.0
vertex 3.20932480951546 12.9990479557499 12.0
endloop
endfacet
facet normal 7.50265177077744e-16 -8.5067842566339e-16 -1.0
outer loop
vertex 13.3821318498401 0.0757915653461902 12.0
vertex 3.20932480951546 12.9990479557499 12.0
vertex 3.96236230905521 14.9469773074683 12.0
endloop
endfacet
facet normal 7.50265177077744e-16 -8.5067842566339e-16 -1.0
outer loop
vertex 13.3821318498401 0.0757915653461902 12.0
vertex 3.96236230905521 14.9469773074683 12.0
vertex 5.19390189276373 16.6336321295224 12.0
endloop
endfacet
facet normal 7.50265177077744e-16 -8.5067842566339e-16 -1.0
outer loop
vertex 13.3821318498401 0.0757915653461902 12.0
vertex 5.19390189276373 16.6336321295224 12.0
vertex 6.82001617322668 17.944069683118 12.0
endloop
endfacet
facet normal 7.50265177077744e-16 -8.5067842566339e-16 -1.0
outer loop
vertex 13.3821318498401 0.0757915653461902 12.0
vertex 6.82001617322668 17.944069683118 12.0
vertex 9.57644712176055 10.7545827251039 12.0
endloop
endfacet
facet normal 7.50265177077744e-16 -8.5067842566339e-16 -1.0
outer loop
vertex 9.57644712176055 10.7545827251039 12.0
vertex 6.82001617322668 17.944069683118 12.0
vertex 9.51638941493598 11.1415282684949 12.0
endloop
endfacet
facet normal 7.50265177077744e-16 -8.5067842566339e-16 -1.0
outer loop
vertex 9.51638941493598 11.1415282684949 12.0
vertex 6.82001617322668 17.944069683118 12.0
vertex 8.72988814951141 18.7889858145781 12.0
endloop
endfacet
facet normal 7.50265177077744e-16 -8.5067842566339e-16 -1.0
outer loop
vertex 13.3821318498401 0.0757915653461902 12.0
vertex 9.57644712176055 10.7545827251039 12.0
vertex 9.73460728789722 10.3963661097065 12.0
endloop
endfacet
facet normal 7.50265177077744e-16 -8.5067842566339e-16 -1.0
outer loop
vertex 13.3821318498401 0.0757915653461902 12.0
vertex 9.73460728789722 10.3963661097065 12.0
vertex 9.98009155939584 10.091290292661 12.0
endloop
endfacet
facet normal 7.50265177077744e-16 -8.5067842566339e-16 -1.0
outer loop
vertex 13.3821318498401 0.0757915653461902 12.0
vertex 9.98009155939584 10.091290292661 12.0
vertex 10.2961705888357 9.86014568673741 12.0
endloop
endfacet
facet normal 7.50265177077744e-16 -8.5067842566339e-16 -1.0
outer loop
vertex 13.3821318498401 0.0757915653461902 12.0
vertex 10.2961705888357 9.86014568673741 12.0
vertex 10.6613041127058 9.71868441484501 12.0
endloop
endfacet
facet normal 7.50265177077744e-16 -8.5067842566339e-16 -1.0
outer loop
vertex 13.3821318498401 0.0757915653461902 12.0
vertex 10.6613041127058 9.71868441484501 12.0
vertex 11.050608884766 9.67654682888742 12.0
endloop
endfacet
facet normal 7.50265177077744e-16 -8.5067842566339e-16 -1.0
outer loop
vertex 13.3821318498401 0.0757915653461902 12.0
vertex 11.050608884766 9.67654682888742 12.0
vertex 11.437554428157 9.73660453571198 12.0
endloop
endfacet
facet normal 7.50265177077744e-16 -8.5067842566339e-16 -1.0
outer loop
vertex 13.3821318498401 0.0757915653461902 12.0
vertex 11.437554428157 9.73660453571198 12.0
vertex 11.7957710435545 9.89476470184866 12.0
endloop
endfacet
facet normal 7.50265177077744e-16 -8.5067842566339e-16 -1.0
outer loop
vertex 13.3821318498401 0.0757915653461902 12.0
vertex 11.7957710435545 9.89476470184866 12.0
vertex 12.1008468606 10.1402489733473 12.0
endloop
endfacet
facet normal 7.50265177077744e-16 -8.5067842566339e-16 -1.0
outer loop
vertex 13.3821318498401 0.0757915653461902 12.0
vertex 12.1008468606 10.1402489733473 12.0
vertex 12.3319914665235 10.4563280027871 12.0
endloop
endfacet
facet normal 7.50265177077744e-16 -8.5067842566339e-16 -1.0
outer loop
vertex 13.3821318498401 0.0757915653461902 12.0
vertex 12.3319914665235 10.4563280027871 12.0
vertex 12.4734527384159 10.8214615266572 12.0
endloop
endfacet
facet normal 7.50265177077744e-16 -8.5067842566339e-16 -1.0
outer loop
vertex 13.3821318498401 0.0757915653461902 12.0
vertex 12.4734527384159 10.8214615266572 12.0
vertex 12.5155903243735 11.2107662987174 12.0
endloop
endfacet
facet normal -0.647742939897001 0.47368623868394 -0.596699615464139
outer loop
vertex 9.48679712162828 11.7388572053665 14.5
vertex 10.6471567737225 11.4360520168321 13.0
vertex 10.4737983192799 11.1989927447522 13.0
endloop
endfacet
facet normal -0.647742939897001 0.47368623868394 -0.596699615464139
outer loop
vertex 10.6471567737225 11.4360520168321 13.0
vertex 9.48679712162828 11.7388572053665 14.5
vertex 9.83351403051357 12.2129757495263 14.5
endloop
endfacet
facet normal 0.748270654417304 -0.289897562326515 -0.596699615464132
outer loop
vertex 12.447800714583 10.1192638235236 13.0
vertex 13.6469938200732 10.1270996487144 14.5
vertex 13.4348019122346 9.57939936290934 14.5
endloop
endfacet
facet normal 0.748270654417304 -0.289897562326515 -0.596699615464132
outer loop
vertex 13.6469938200732 10.1270996487144 14.5
vertex 12.447800714583 10.1192638235236 13.0
vertex 12.5538966685023 10.3931139664262 13.0
endloop
endfacet
facet normal -0.794800263105802 -0.350921024472352 0.495123193104729
outer loop
vertex 10.3811424560108 10.3429548652612 13.0
vertex 9.73460728789722 10.3963661097065 12.0
vertex 10.4997625806133 10.0742924037131 13.0
endloop
endfacet
facet normal -0.794800263105802 -0.350921024472352 0.495123193104729
outer loop
vertex 9.73460728789722 10.3963661097065 12.0
vertex 10.3811424560108 10.3429548652612 13.0
vertex 9.57644712176055 10.7545827251039 12.0
endloop
endfacet
facet normal -0.107133644483362 -0.989796593652741 -0.0939419257474753
outer loop
vertex 11.4867637782649 9.53442794309884 13.0
vertex 10.6613041127058 9.71868441484501 12.0
vertex 11.050608884766 9.67654682888742 12.0
endloop
endfacet
facet normal -0.107133644483362 -0.989796593652741 -0.0939419257474753
outer loop
vertex 10.6613041127058 9.71868441484501 12.0
vertex 11.4867637782649 9.53442794309884 13.0
vertex 11.1947851992197 9.56603113256703 13.0
endloop
endfacet
facet normal 0.986385372548802 -0.106764420592988 -0.12508099502804
outer loop
vertex 12.4734527384159 10.8214615266572 12.0
vertex 12.5854998579705 10.6850925454713 13.0
vertex 12.5538966685023 10.3931139664262 13.0
endloop
endfacet
facet normal 0.986385372548802 -0.106764420592988 -0.12508099502804
outer loop
vertex 12.5854998579705 10.6850925454713 13.0
vertex 12.4734527384159 10.8214615266572 12.0
vertex 12.5155903243735 11.2107662987174 12.0
endloop
endfacet
facet normal 0.774741742483036 -0.566558860535941 -0.280688955968284
outer loop
vertex 12.1008468606 10.1402489733473 12.0
vertex 12.447800714583 10.1192638235236 13.0
vertex 12.2744422601404 9.88220455144372 13.0
endloop
endfacet
facet normal 0.774741742483036 -0.566558860535941 -0.280688955968284
outer loop
vertex 12.447800714583 10.1192638235236 13.0
vertex 12.1008468606 10.1402489733473 12.0
vertex 12.3319914665235 10.4563280027871 12.0
endloop
endfacet
facet normal -0.282137332959062 0.639012230187719 0.715585001953832
outer loop
vertex 10.8759636365066 11.6201652204561 13.0
vertex 10.5944253111525 12.6156900315004 12.0
vertex 10.236208695755 12.4575298653637 12.0
endloop
endfacet
facet normal -0.282137332959062 0.639012230187719 0.715585001953832
outer loop
vertex 10.5944253111525 12.6156900315004 12.0
vertex 10.8759636365066 11.6201652204561 13.0
vertex 11.1446260980547 11.7387853450586 13.0
endloop
endfacet
facet normal 0.296899880477793 0.766344725628637 0.569707137460504
outer loop
vertex 11.7268138346432 11.7522254357088 13.0
vertex 11.7358091504738 12.492148880475 12.0
vertex 11.3706756266037 12.6336101523673 12.0
endloop
endfacet
facet normal 0.296899880477793 0.766344725628637 0.569707137460504
outer loop
vertex 11.7358091504738 12.492148880475 12.0
vertex 11.7268138346432 11.7522254357088 13.0
vertex 12.0006639775457 11.6461294817895 13.0
endloop
endfacet
facet normal 0.324118721730845 -0.734095786071896 -0.596699615464136
outer loop
vertex 12.630471277781 8.73705441150162 14.5
vertex 11.7769729358081 9.57947122321726 13.0
vertex 12.0456353973562 9.69809134781977 13.0
endloop
endfacet
facet normal 0.324118721730845 -0.734095786071896 -0.596699615464136
outer loop
vertex 11.7769729358081 9.57947122321726 13.0
vertex 12.630471277781 8.73705441150162 14.5
vertex 12.0931463546848 8.49981416229661 14.5
endloop
endfacet
facet normal -0.797354718205594 -0.123757197153654 0.590685711277959
outer loop
vertex 10.3360991758924 10.6331640228045 13.0
vertex 9.57644712176055 10.7545827251039 12.0
vertex 10.3811424560108 10.3429548652612 13.0
endloop
endfacet
facet normal -0.797354718205594 -0.123757197153654 0.590685711277959
outer loop
vertex 9.57644712176055 10.7545827251039 12.0
vertex 10.3360991758924 10.6331640228045 13.0
vertex 9.51638941493598 11.1415282684949 12.0
endloop
endfacet
facet normal 0.38886029687959 -0.880728838450235 -0.270378221446954
outer loop
vertex 12.0456353973562 9.69809134781977 13.0
vertex 11.437554428157 9.73660453571198 12.0
vertex 11.7957710435545 9.89476470184866 12.0
endloop
endfacet
facet normal 0.38886029687959 -0.880728838450235 -0.270378221446954
outer loop
vertex 11.437554428157 9.73660453571198 12.0
vertex 12.0456353973562 9.69809134781977 13.0
vertex 11.7769729358081 9.57947122321726 13.0
endloop
endfacet
facet normal 0.15017943795427 -0.967590460873323 -0.203014374965643
outer loop
vertex 11.7769729358081 9.57947122321726 13.0
vertex 11.050608884766 9.67654682888742 12.0
vertex 11.437554428157 9.73660453571198 12.0
endloop
endfacet
facet normal 0.15017943795427 -0.967590460873323 -0.203014374965643
outer loop
vertex 11.050608884766 9.67654682888742 12.0
vertex 11.7769729358081 9.57947122321726 13.0
vertex 11.4867637782649 9.53442794309884 13.0
endloop
endfacet
facet normal 0.908787611677077 -0.352085587938607 -0.223921449683141
outer loop
vertex 12.3319914665235 10.4563280027871 12.0
vertex 12.5538966685023 10.3931139664262 13.0
vertex 12.447800714583 10.1192638235236 13.0
endloop
endfacet
facet normal 0.908787611677077 -0.352085587938607 -0.223921449683141
outer loop
vertex 12.5538966685023 10.3931139664262 13.0
vertex 12.3319914665235 10.4563280027871 12.0
vertex 12.4734527384159 10.8214615266572 12.0
endloop
endfacet
facet normal -0.75019045184961 0.0811991450351094 0.656217178073879
outer loop
vertex 10.3677023653605 10.9251426018496 13.0
vertex 9.51638941493598 11.1415282684949 12.0
vertex 10.3360991758924 10.6331640228045 13.0
endloop
endfacet
facet normal -0.75019045184961 0.0811991450351094 0.656217178073879
outer loop
vertex 9.51638941493598 11.1415282684949 12.0
vertex 10.3677023653605 10.9251426018496 13.0
vertex 9.55852700089358 11.5308330405552 12.0
endloop
endfacet
facet normal 0.988102504252326 0.153363106324844 0.0115411744929574
outer loop
vertex 12.5155903243735 11.2107662987174 12.0
vertex 12.5404565778521 10.9753017030146 13.0
vertex 12.5854998579705 10.6850925454713 13.0
endloop
endfacet
facet normal 0.988102504252326 0.153363106324844 0.0115411744929574
outer loop
vertex 12.5404565778521 10.9753017030146 13.0
vertex 12.5155903243735 11.2107662987174 12.0
vertex 12.4555326175489 11.5977118421084 12.0
endloop
endfacet
facet normal -0.73409578607189 -0.324118721730852 -0.59669961546414
outer loop
vertex 9.3014853950901 10.0267814463845 14.5
vertex 10.4997625806133 10.0742924037131 13.0
vertex 9.53872564429514 9.48945652328833 14.5
endloop
endfacet
facet normal -0.73409578607189 -0.324118721730852 -0.59669961546414
outer loop
vertex 10.4997625806133 10.0742924037131 13.0
vertex 9.3014853950901 10.0267814463845 14.5
vertex 10.3811424560108 10.3429548652612 13.0
endloop
endfacet
facet normal -0.431606494502763 0.536379390617391 0.725267525278743
outer loop
vertex 10.6471567737225 11.4360520168321 13.0
vertex 10.236208695755 12.4575298653637 12.0
vertex 9.93113287870952 12.2120455938651 12.0
endloop
endfacet
facet normal -0.431606494502763 0.536379390617391 0.725267525278743
outer loop
vertex 10.236208695755 12.4575298653637 12.0
vertex 10.6471567737225 11.4360520168321 13.0
vertex 10.8759636365066 11.6201652204561 13.0
endloop
endfacet
facet normal 0.735497477579156 0.591830136590753 0.329818965339577
outer loop
vertex 12.2973724514123 11.9559284575059 12.0
vertex 12.2377232496256 11.4727710273468 13.0
vertex 12.4218364532496 11.2439641645627 13.0
endloop
endfacet
facet normal 0.735497477579156 0.591830136590753 0.329818965339577
outer loop
vertex 12.2377232496256 11.4727710273468 13.0
vertex 12.2973724514123 11.9559284575059 12.0
vertex 12.0518881799137 12.2610042745514 12.0
endloop
endfacet
facet normal 0.0824806431467366 0.762030079557256 0.64226715730766
outer loop
vertex 11.434835255598 11.783828625177 13.0
vertex 11.3706756266037 12.6336101523673 12.0
vertex 10.9813708545435 12.6757477383249 12.0
endloop
endfacet
facet normal 0.0824806431467366 0.762030079557256 0.64226715730766
outer loop
vertex 11.3706756266037 12.6336101523673 12.0
vertex 11.434835255598 11.783828625177 13.0
vertex 11.7268138346432 11.7522254357088 13.0
endloop
endfacet
facet normal 0.0863528461749183 0.797804960414788 -0.596699615464138
outer loop
vertex 11.4088709942646 12.9085289662161 14.5
vertex 11.7268138346432 11.7522254357088 13.0
vertex 11.434835255598 11.783828625177 13.0
endloop
endfacet
facet normal 0.0863528461749183 0.797804960414788 -0.596699615464138
outer loop
vertex 11.7268138346432 11.7522254357088 13.0
vertex 11.4088709942646 12.9085289662161 14.5
vertex 11.9928281523549 12.8453225872797 14.5
endloop
endfacet
facet normal -0.360801357277088 -0.931284366649077 0.0503170847927231
outer loop
vertex 11.1947851992197 9.56603113256703 13.0
vertex 10.2961705888357 9.86014568673741 12.0
vertex 10.6613041127058 9.71868441484501 12.0
endloop
endfacet
facet normal -0.360801357277088 -0.931284366649077 0.0503170847927231
outer loop
vertex 10.2961705888357 9.86014568673741 12.0
vertex 11.1947851992197 9.56603113256703 13.0
vertex 10.9209350563171 9.67212708648633 13.0
endloop
endfacet
facet normal -0.724805659202522 -0.583226789165206 0.366746872908333
outer loop
vertex 10.4997625806133 10.0742924037131 13.0
vertex 9.98009155939584 10.091290292661 12.0
vertex 10.6838757842373 9.84548554092899 13.0
endloop
endfacet
facet normal -0.724805659202522 -0.583226789165206 0.366746872908333
outer loop
vertex 9.98009155939584 10.091290292661 12.0
vertex 10.4997625806133 10.0742924037131 13.0
vertex 9.73460728789722 10.3963661097065 12.0
endloop
endfacet
facet normal -0.56058277955095 0.409947113215488 0.719506992069722
outer loop
vertex 10.4737983192799 11.1989927447522 13.0
vertex 9.93113287870952 12.2120455938651 12.0
vertex 9.69998827278598 11.8959665644252 12.0
endloop
endfacet
facet normal -0.56058277955095 0.409947113215488 0.719506992069722
outer loop
vertex 9.93113287870952 12.2120455938651 12.0
vertex 10.4737983192799 11.1989927447522 13.0
vertex 10.6471567737225 11.4360520168321 13.0
endloop
endfacet
facet normal 0.598819245356612 -0.744183199292199 -0.295984589601834
outer loop
vertex 12.2744422601404 9.88220455144372 13.0
vertex 11.7957710435545 9.89476470184866 12.0
vertex 12.1008468606 10.1402489733473 12.0
endloop
endfacet
facet normal 0.598819245356612 -0.744183199292199 -0.295984589601834
outer loop
vertex 11.7957710435545 9.89476470184866 12.0
vertex 12.2744422601404 9.88220455144372 13.0
vertex 12.0456353973562 9.69809134781977 13.0
endloop
endfacet
facet normal -0.668199889026702 0.258876274022201 0.697489772722931
outer loop
vertex 10.3677023653605 10.9251426018496 13.0
vertex 9.69998827278598 11.8959665644252 12.0
vertex 9.55852700089358 11.5308330405552 12.0
endloop
endfacet
facet normal -0.668199889026702 0.258876274022201 0.697489772722931
outer loop
vertex 9.69998827278598 11.8959665644252 12.0
vertex 10.3677023653605 10.9251426018496 13.0
vertex 10.4737983192799 11.1989927447522 13.0
endloop
endfacet
facet normal -0.324118721730837 0.734095786071898 -0.596699615464138
outer loop
vertex 10.2911277560819 12.5812021567742 14.5
vertex 11.1446260980547 11.7387853450586 13.0
vertex 10.8759636365066 11.6201652204561 13.0
endloop
endfacet
facet normal -0.324118721730837 0.734095786071898 -0.596699615464138
outer loop
vertex 11.1446260980547 11.7387853450586 13.0
vertex 10.2911277560819 12.5812021567742 14.5
vertex 10.828452679178 12.8184424059792 14.5
endloop
endfacet
facet normal 0.625193980678627 0.503072614468496 -0.596699615464133
outer loop
vertex 12.2377232496256 11.4727710273468 13.0
vertex 13.3828733895677 11.8288000449875 14.5
vertex 12.4218364532496 11.2439641645627 13.0
endloop
endfacet
facet normal 0.625193980678627 0.503072614468496 -0.596699615464133
outer loop
vertex 13.3828733895677 11.8288000449875 14.5
vertex 12.2377232496256 11.4727710273468 13.0
vertex 13.0146469823198 12.2864137705558 14.5
endloop
endfacet
facet normal 0.734095786071889 0.324118721730869 -0.596699615464132
outer loop
vertex 12.4218364532496 11.2439641645627 13.0
vertex 13.6201136387727 11.2914751218913 14.5
vertex 12.5404565778521 10.9753017030146 13.0
endloop
endfacet
facet normal 0.734095786071889 0.324118721730869 -0.596699615464132
outer loop
vertex 13.6201136387727 11.2914751218913 14.5
vertex 12.4218364532496 11.2439641645627 13.0
vertex 13.3828733895677 11.8288000449875 14.5
endloop
endfacet
facet normal -0.123076673738681 0.792970176795051 -0.596699615464137
outer loop
vertex 10.828452679178 12.8184424059792 14.5
vertex 11.434835255598 11.783828625177 13.0
vertex 11.1446260980547 11.7387853450586 13.0
endloop
endfacet
facet normal -0.123076673738681 0.792970176795051 -0.596699615464137
outer loop
vertex 11.434835255598 11.783828625177 13.0
vertex 10.828452679178 12.8184424059792 14.5
vertex 11.4088709942646 12.9085289662161 14.5
endloop
endfacet
facet normal -2.87812579163365e-16 2.90469543340321e-16 1.0
outer loop
vertex 13.3821318498401 0.0757915653461909 14.5
vertex 0.0243138217487056 13.9148318347038 14.5
vertex 1.61927762865055e-15 0.0757915653461909 14.5
endloop
endfacet
facet normal -2.87812579163365e-16 2.90469543340321e-16 1.0
outer loop
vertex 0.0243138217487056 13.9148318347038 14.5
vertex 13.3821318498401 0.0757915653461909 14.5
vertex 0.247530975979352 15.9912875498724 14.5
endloop
endfacet
facet normal -2.87812579163365e-16 2.90469543340321e-16 1.0
outer loop
vertex 0.247530975979352 15.9912875498724 14.5
vertex 13.3821318498401 0.0757915653461909 14.5
vertex 1.0005684755191 17.9392169015908 14.5
endloop
endfacet
facet normal -2.87812579163365e-16 2.90469543340321e-16 1.0
outer loop
vertex 1.0005684755191 17.9392169015908 14.5
vertex 13.3821318498401 0.0757915653461909 14.5
vertex 2.23210805922762 19.6258717236449 14.5
endloop
endfacet
facet normal -2.87812579163365e-16 2.90469543340321e-16 1.0
outer loop
vertex 2.23210805922762 19.6258717236449 14.5
vertex 13.3821318498401 0.0757915653461909 14.5
vertex 3.85822233969057 20.9363092772405 14.5
endloop
endfacet
facet normal -2.87812579163365e-16 2.90469543340321e-16 1.0
outer loop
vertex 3.85822233969057 20.9363092772405 14.5
vertex 13.3821318498401 0.0757915653461909 14.5
vertex 9.3014853950901 10.0267814463845 14.5
endloop
endfacet
facet normal -2.87812579163365e-16 2.90469543340321e-16 1.0
outer loop
vertex 3.85822233969057 20.9363092772405 14.5
vertex 9.3014853950901 10.0267814463845 14.5
vertex 5.7680943159753 21.7812254087006 14.5
endloop
endfacet
facet normal -2.87812579163365e-16 2.90469543340321e-16 1.0
outer loop
vertex 5.7680943159753 21.7812254087006 14.5
vertex 9.3014853950901 10.0267814463845 14.5
vertex 9.21139883485328 10.607199761471 14.5
endloop
endfacet
facet normal -2.87812579163365e-16 2.90469543340321e-16 1.0
outer loop
vertex 5.7680943159753 21.7812254087006 14.5
vertex 9.21139883485328 10.607199761471 14.5
vertex 7.65684959820861 22.0757915653462 14.5
endloop
endfacet
facet normal -2.87812579163365e-16 2.90469543340321e-16 1.0
outer loop
vertex 7.65684959820861 22.0757915653462 14.5
vertex 9.21139883485328 10.607199761471 14.5
vertex 8.08504972848959 22.0757915653462 14.5
endloop
endfacet
facet normal -2.87812579163365e-16 2.90469543340321e-16 1.0
outer loop
vertex 9.3014853950901 10.0267814463845 14.5
vertex 13.3821318498401 0.0757915653461909 14.5
vertex 9.53872564429514 9.48945652328833 14.5
endloop
endfacet
facet normal -2.87812579163365e-16 2.90469543340321e-16 1.0
outer loop
vertex 9.53872564429514 9.48945652328833 14.5
vertex 13.3821318498401 0.0757915653461909 14.5
vertex 9.90695205154308 9.03184279772006 14.5
endloop
endfacet
facet normal -2.87812579163365e-16 2.90469543340321e-16 1.0
outer loop
vertex 9.90695205154308 9.03184279772006 14.5
vertex 13.3821318498401 0.0757915653461909 14.5
vertex 10.3810705957028 8.68512588883476 14.5
endloop
endfacet
facet normal -2.87812579163365e-16 2.90469543340321e-16 1.0
outer loop
vertex 10.3810705957028 8.68512588883476 14.5
vertex 13.3821318498401 0.0757915653461909 14.5
vertex 10.9287708815079 8.47293398099615 14.5
endloop
endfacet
facet normal -2.87812579163365e-16 2.90469543340321e-16 1.0
outer loop
vertex 10.9287708815079 8.47293398099615 14.5
vertex 13.3821318498401 0.0757915653461909 14.5
vertex 11.5127280395983 8.40972760205976 14.5
endloop
endfacet
facet normal -2.87812579163365e-16 2.90469543340321e-16 1.0
outer loop
vertex 11.5127280395983 8.40972760205976 14.5
vertex 13.3821318498401 0.0757915653461909 14.5
vertex 12.0931463546848 8.49981416229661 14.5
endloop
endfacet
facet normal -2.87812579163365e-16 2.90469543340321e-16 1.0
outer loop
vertex 12.0931463546848 8.49981416229661 14.5
vertex 13.3821318498401 0.0757915653461909 14.5
vertex 12.630471277781 8.73705441150162 14.5
endloop
endfacet
facet normal -2.87812579163365e-16 2.90469543340321e-16 1.0
outer loop
vertex 12.630471277781 8.73705441150162 14.5
vertex 13.3821318498401 0.0757915653461909 14.5
vertex 13.0880850033493 9.10528081874955 14.5
endloop
endfacet
facet normal -2.87812579163365e-16 2.90469543340321e-16 1.0
outer loop
vertex 13.0880850033493 9.10528081874955 14.5
vertex 13.3821318498401 0.0757915653461909 14.5
vertex 13.4348019122346 9.57939936290934 14.5
endloop
endfacet
facet normal -2.87812579163365e-16 2.90469543340321e-16 1.0
outer loop
vertex 13.4348019122346 9.57939936290934 14.5
vertex 13.3821318498401 0.0757915653461909 14.5
vertex 14.5598268506785 0.0757915653461909 14.5
endloop
endfacet
facet normal -2.87812579163365e-16 2.90469543340321e-16 1.0
outer loop
vertex 13.4348019122346 9.57939936290934 14.5
vertex 14.5598268506785 0.0757915653461909 14.5
vertex 13.6469938200732 10.1270996487144 14.5
endloop
endfacet
facet normal -2.87812579163365e-16 2.90469543340321e-16 1.0
outer loop
vertex 13.6469938200732 10.1270996487144 14.5
vertex 14.5598268506785 0.0757915653461909 14.5
vertex 13.7102001990096 10.7110568068048 14.5
endloop
endfacet
facet normal -2.87812579163365e-16 2.90469543340321e-16 1.0
outer loop
vertex 8.08504972848959 22.0757915653462 14.5
vertex 9.83351403051357 12.2129757495263 14.5
vertex 22.0 22.0757915653462 14.5
endloop
endfacet
facet normal -2.87812579163365e-16 2.90469543340321e-16 1.0
outer loop
vertex 9.83351403051357 12.2129757495263 14.5
vertex 8.08504972848959 22.0757915653462 14.5
vertex 9.48679712162828 11.7388572053665 14.5
endloop
endfacet
facet normal -2.87812579163365e-16 2.90469543340321e-16 1.0
outer loop
vertex 9.48679712162828 11.7388572053665 14.5
vertex 8.08504972848959 22.0757915653462 14.5
vertex 9.27460521378965 11.1911569195614 14.5
endloop
endfacet
facet normal -2.87812579163365e-16 2.90469543340321e-16 1.0
outer loop
vertex 9.27460521378965 11.1911569195614 14.5
vertex 8.08504972848959 22.0757915653462 14.5
vertex 9.21139883485328 10.607199761471 14.5
endloop
endfacet
facet normal -2.87812579163365e-16 2.90469543340321e-16 1.0
outer loop
vertex 22.0 22.0757915653462 14.5
vertex 9.83351403051357 12.2129757495263 14.5
vertex 10.2911277560819 12.5812021567742 14.5
endloop
endfacet
facet normal -2.87812579163365e-16 2.90469543340321e-16 1.0
outer loop
vertex 22.0 22.0757915653462 14.5
vertex 10.2911277560819 12.5812021567742 14.5
vertex 10.828452679178 12.8184424059792 14.5
endloop
endfacet
facet normal -2.87812579163365e-16 2.90469543340321e-16 1.0
outer loop
vertex 22.0 22.0757915653462 14.5
vertex 10.828452679178 12.8184424059792 14.5
vertex 11.4088709942646 12.9085289662161 14.5
endloop
endfacet
facet normal -2.87812579163365e-16 2.90469543340321e-16 1.0
outer loop
vertex 22.0 22.0757915653462 14.5
vertex 11.4088709942646 12.9085289662161 14.5
vertex 11.9928281523549 12.8453225872797 14.5
endloop
endfacet
facet normal -2.87812579163365e-16 2.90469543340321e-16 1.0
outer loop
vertex 22.0 22.0757915653462 14.5
vertex 11.9928281523549 12.8453225872797 14.5
vertex 12.54052843816 12.6331306794411 14.5
endloop
endfacet
facet normal -2.87812579163365e-16 2.90469543340321e-16 1.0
outer loop
vertex 22.0 22.0757915653462 14.5
vertex 12.54052843816 12.6331306794411 14.5
vertex 13.0146469823198 12.2864137705558 14.5
endloop
endfacet
facet normal -2.87812579163365e-16 2.90469543340321e-16 1.0
outer loop
vertex 22.0 22.0757915653462 14.5
vertex 13.0146469823198 12.2864137705558 14.5
vertex 13.3828733895677 11.8288000449875 14.5
endloop
endfacet
facet normal -2.87812579163365e-16 2.90469543340321e-16 1.0
outer loop
vertex 22.0 22.0757915653462 14.5
vertex 13.3828733895677 11.8288000449875 14.5
vertex 13.6201136387727 11.2914751218913 14.5
endloop
endfacet
facet normal -2.87812579163365e-16 2.90469543340321e-16 1.0
outer loop
vertex 22.0 22.0757915653462 14.5
vertex 13.6201136387727 11.2914751218913 14.5
vertex 13.7102001990096 10.7110568068048 14.5
endloop
endfacet
facet normal -2.87812579163365e-16 2.90469543340321e-16 1.0
outer loop
vertex 22.0 22.0757915653462 14.5
vertex 13.7102001990096 10.7110568068048 14.5
vertex 14.5598268506785 0.0757915653461909 14.5
endloop
endfacet
facet normal -2.87812579163365e-16 2.90469543340321e-16 1.0
outer loop
vertex 22.0 22.0757915653462 14.5
vertex 14.5598268506785 0.0757915653461909 14.5
vertex 15.9577052714086 0.23214893560093 14.5
endloop
endfacet
facet normal -2.87812579163365e-16 2.90469543340321e-16 1.0
outer loop
vertex 22.0 22.0757915653462 14.5
vertex 15.9577052714086 0.23214893560093 14.5
vertex 17.9023766875424 0.993560334433065 14.5
endloop
endfacet
facet normal -2.87812579163365e-16 2.90469543340321e-16 1.0
outer loop
vertex 22.0 22.0757915653462 14.5
vertex 17.9023766875424 0.993560334433065 14.5
vertex 19.5837172608562 2.23234526795781 14.5
endloop
endfacet
facet normal -2.87812579163365e-16 2.90469543340321e-16 1.0
outer loop
vertex 22.0 22.0757915653462 14.5
vertex 19.5837172608562 2.23234526795781 14.5
vertex 20.8871464098255 3.86408259014437 14.5
endloop
endfacet
facet normal -2.87812579163365e-16 2.90469543340321e-16 1.0
outer loop
vertex 22.0 22.0757915653462 14.5
vertex 20.8871464098255 3.86408259014437 14.5
vertex 21.7238375919664 5.77757209905915 14.5
endloop
endfacet
facet normal -2.87812579163365e-16 2.90469543340321e-16 1.0
outer loop
vertex 22.0 22.0757915653462 14.5
vertex 21.7238375919664 5.77757209905915 14.5
vertex 22.0 7.59978114855465 14.5
endloop
endfacet
facet normal -2.87812579163365e-16 2.90469543340321e-16 1.0
outer loop
vertex 22.0 22.0757915653462 14.5
vertex 22.0 7.59978114855465 14.5
vertex 22.0 8.17116175634435 14.5
endloop
endfacet
facet normal 0.289897562326539 0.748270654417292 -0.596699615464136
outer loop
vertex 11.9928281523549 12.8453225872797 14.5
vertex 12.0006639775457 11.6461294817895 13.0
vertex 11.7268138346432 11.7522254357088 13.0
endloop
endfacet
facet normal 0.289897562326539 0.748270654417292 -0.596699615464136
outer loop
vertex 12.0006639775457 11.6461294817895 13.0
vertex 11.9928281523549 12.8453225872797 14.5
vertex 12.54052843816 12.6331306794411 14.5
endloop
endfacet
facet normal -0.0863528461748972 -0.79780496041479 -0.596699615464138
outer loop
vertex 11.5127280395983 8.40972760205976 14.5
vertex 11.1947851992197 9.56603113256703 13.0
vertex 11.4867637782649 9.53442794309884 13.0
endloop
endfacet
facet normal -0.0863528461748972 -0.79780496041479 -0.596699615464138
outer loop
vertex 11.1947851992197 9.56603113256703 13.0
vertex 11.5127280395983 8.40972760205976 14.5
vertex 10.9287708815079 8.47293398099615 14.5
endloop
endfacet
facet normal 0.797804960414793 -0.0863528461749168 -0.596699615464131
outer loop
vertex 12.5538966685023 10.3931139664262 13.0
vertex 13.7102001990096 10.7110568068048 14.5
vertex 13.6469938200732 10.1270996487144 14.5
endloop
endfacet
facet normal 0.797804960414793 -0.0863528461749168 -0.596699615464131
outer loop
vertex 13.7102001990096 10.7110568068048 14.5
vertex 12.5538966685023 10.3931139664262 13.0
vertex 12.5854998579705 10.6850925454713 13.0
endloop
endfacet
facet normal 0.901304627921408 0.39794494047589 0.171142607310665
outer loop
vertex 12.4555326175489 11.5977118421084 12.0
vertex 12.4218364532496 11.2439641645627 13.0
vertex 12.5404565778521 10.9753017030146 13.0
endloop
endfacet
facet normal 0.901304627921408 0.39794494047589 0.171142607310665
outer loop
vertex 12.4218364532496 11.2439641645627 13.0
vertex 12.4555326175489 11.5977118421084 12.0
vertex 12.2973724514123 11.9559284575059 12.0
endloop
endfacet
facet normal -0.797804960414791 0.0863528461748704 -0.596699615464141
outer loop
vertex 9.27460521378965 11.1911569195614 14.5
vertex 10.3360991758924 10.6331640228045 13.0
vertex 9.21139883485328 10.607199761471 14.5
endloop
endfacet
facet normal -0.797804960414791 0.0863528461748704 -0.596699615464141
outer loop
vertex 10.3360991758924 10.6331640228045 13.0
vertex 9.27460521378965 11.1911569195614 14.5
vertex 10.3677023653605 10.9251426018496 13.0
endloop
endfacet
facet normal 0.522305306443054 0.714227155213937 0.465914946762211
outer loop
vertex 12.0006639775457 11.6461294817895 13.0
vertex 12.0518881799137 12.2610042745514 12.0
vertex 11.7358091504738 12.492148880475 12.0
endloop
endfacet
facet normal 0.522305306443054 0.714227155213937 0.465914946762211
outer loop
vertex 12.0518881799137 12.2610042745514 12.0
vertex 12.0006639775457 11.6461294817895 13.0
vertex 12.2377232496256 11.4727710273468 13.0
endloop
endfacet
facet normal -0.625193980678592 -0.503072614468534 -0.596699615464138
outer loop
vertex 9.53872564429514 9.48945652328833 14.5
vertex 10.6838757842373 9.84548554092899 13.0
vertex 9.90695205154308 9.03184279772006 14.5
endloop
endfacet
facet normal -0.625193980678592 -0.503072614468534 -0.596699615464138
outer loop
vertex 10.6838757842373 9.84548554092899 13.0
vertex 9.53872564429514 9.48945652328833 14.5
vertex 10.4997625806133 10.0742924037131 13.0
endloop
endfacet
facet normal 0.647742939897003 -0.473686238683942 -0.596699615464135
outer loop
vertex 12.2744422601404 9.88220455144372 13.0
vertex 13.4348019122346 9.57939936290934 14.5
vertex 13.0880850033493 9.10528081874955 14.5
endloop
endfacet
facet normal 0.647742939897003 -0.473686238683942 -0.596699615464135
outer loop
vertex 13.4348019122346 9.57939936290934 14.5
vertex 12.2744422601404 9.88220455144372 13.0
vertex 12.447800714583 10.1192638235236 13.0
endloop
endfacet
facet normal 0.123076673738698 -0.792970176795047 -0.596699615464138
outer loop
vertex 12.0931463546848 8.49981416229661 14.5
vertex 11.4867637782649 9.53442794309884 13.0
vertex 11.7769729358081 9.57947122321726 13.0
endloop
endfacet
facet normal 0.123076673738698 -0.792970176795047 -0.596699615464138
outer loop
vertex 11.4867637782649 9.53442794309884 13.0
vertex 12.0931463546848 8.49981416229661 14.5
vertex 11.5127280395983 8.40972760205976 14.5
endloop
endfacet
facet normal 0.473686238683936 0.647742939897008 -0.596699615464134
outer loop
vertex 12.54052843816 12.6331306794411 14.5
vertex 12.2377232496256 11.4727710273468 13.0
vertex 12.0006639775457 11.6461294817895 13.0
endloop
endfacet
facet normal 0.473686238683936 0.647742939897008 -0.596699615464134
outer loop
vertex 12.2377232496256 11.4727710273468 13.0
vertex 12.54052843816 12.6331306794411 14.5
vertex 13.0146469823198 12.2864137705558 14.5
endloop
endfacet
facet normal -0.28989756232654 -0.74827065441729 -0.596699615464139
outer loop
vertex 10.9287708815079 8.47293398099615 14.5
vertex 10.9209350563171 9.67212708648633 13.0
vertex 11.1947851992197 9.56603113256703 13.0
endloop
endfacet
facet normal -0.28989756232654 -0.74827065441729 -0.596699615464139
outer loop
vertex 10.9209350563171 9.67212708648633 13.0
vertex 10.9287708815079 8.47293398099615 14.5
vertex 10.3810705957028 8.68512588883476 14.5
endloop
endfacet
facet normal 0.503072614468494 -0.625193980678627 -0.596699615464135
outer loop
vertex 13.0880850033493 9.10528081874955 14.5
vertex 12.0456353973562 9.69809134781977 13.0
vertex 12.2744422601404 9.88220455144372 13.0
endloop
endfacet
facet normal 0.503072614468494 -0.625193980678627 -0.596699615464135
outer loop
vertex 12.0456353973562 9.69809134781977 13.0
vertex 13.0880850033493 9.10528081874955 14.5
vertex 12.630471277781 8.73705441150162 14.5
endloop
endfacet
facet normal 0.792970176795054 0.123076673738679 -0.596699615464133
outer loop
vertex 12.5404565778521 10.9753017030146 13.0
vertex 13.7102001990096 10.7110568068048 14.5
vertex 12.5854998579705 10.6850925454713 13.0
endloop
endfacet
facet normal 0.792970176795054 0.123076673738679 -0.596699615464133
outer loop
vertex 13.7102001990096 10.7110568068048 14.5
vertex 12.5404565778521 10.9753017030146 13.0
vertex 13.6201136387727 11.2914751218913 14.5
endloop
endfacet
facet normal -0.792970176795051 -0.123076673738663 -0.59669961546414
outer loop
vertex 9.21139883485328 10.607199761471 14.5
vertex 10.3811424560108 10.3429548652612 13.0
vertex 9.3014853950901 10.0267814463845 14.5
endloop
endfacet
facet normal -0.792970176795051 -0.123076673738663 -0.59669961546414
outer loop
vertex 10.3811424560108 10.3429548652612 13.0
vertex 9.21139883485328 10.607199761471 14.5
vertex 10.3360991758924 10.6331640228045 13.0
endloop
endfacet
facet normal -0.503072614468511 0.62519398067861 -0.596699615464139
outer loop
vertex 9.83351403051357 12.2129757495263 14.5
vertex 10.8759636365066 11.6201652204561 13.0
vertex 10.6471567737225 11.4360520168321 13.0
endloop
endfacet
facet normal -0.503072614468511 0.62519398067861 -0.596699615464139
outer loop
vertex 10.8759636365066 11.6201652204561 13.0
vertex 9.83351403051357 12.2129757495263 14.5
vertex 10.2911277560819 12.5812021567742 14.5
endloop
endfacet
facet normal -0.57686052795722 -0.788828772665349 0.212087478885943
outer loop
vertex 10.9209350563171 9.67212708648633 13.0
vertex 9.98009155939584 10.091290292661 12.0
vertex 10.2961705888357 9.86014568673741 12.0
endloop
endfacet
facet normal -0.57686052795722 -0.788828772665349 0.212087478885943
outer loop
vertex 9.98009155939584 10.091290292661 12.0
vertex 10.9209350563171 9.67212708648633 13.0
vertex 10.6838757842373 9.84548554092899 13.0
endloop
endfacet
facet normal -0.111144745677296 0.71609400833085 0.689098118369936
outer loop
vertex 11.1446260980547 11.7387853450586 13.0
vertex 10.9813708545435 12.6757477383249 12.0
vertex 10.5944253111525 12.6156900315004 12.0
endloop
endfacet
facet normal -0.111144745677296 0.71609400833085 0.689098118369936
outer loop
vertex 10.9813708545435 12.6757477383249 12.0
vertex 11.1446260980547 11.7387853450586 13.0
vertex 11.434835255598 11.783828625177 13.0
endloop
endfacet
facet normal -0.473686238683974 -0.647742939896978 -0.596699615464138
outer loop
vertex 10.3810705957028 8.68512588883476 14.5
vertex 10.6838757842373 9.84548554092899 13.0
vertex 10.9209350563171 9.67212708648633 13.0
endloop
endfacet
facet normal -0.473686238683974 -0.647742939896978 -0.596699615464138
outer loop
vertex 10.6838757842373 9.84548554092899 13.0
vertex 10.3810705957028 8.68512588883476 14.5
vertex 9.90695205154308 9.03184279772006 14.5
endloop
endfacet
facet normal -0.748270654417278 0.289897562326567 -0.59669961546414
outer loop
vertex 9.27460521378965 11.1911569195614 14.5
vertex 10.4737983192799 11.1989927447522 13.0
vertex 10.3677023653605 10.9251426018496 13.0
endloop
endfacet
facet normal -0.748270654417278 0.289897562326567 -0.59669961546414
outer loop
vertex 10.4737983192799 11.1989927447522 13.0
vertex 9.27460521378965 11.1911569195614 14.5
vertex 9.48679712162828 11.7388572053665 14.5
endloop
endfacet
facet normal -0.999998451849544 0.00175962563536163 -4.01725689693952e-06
outer loop
vertex 2.33918087479569e-15 0.0757915653461902 12.0
vertex -7.04991620636974e-16 7.04991620636974e-16 2.5
vertex 1.61927762865055e-15 7.04991620636974e-16 12.0
endloop
endfacet
facet normal -0.999998451849544 0.00175962563536163 -4.01725689693952e-06
outer loop
vertex -7.04991620636974e-16 7.04991620636974e-16 2.5
vertex 2.33918087479569e-15 0.0757915653461902 12.0
vertex 0.0243138217487033 13.8390402693576 2.5
endloop
endfacet
facet normal -0.999998451849544 0.00175962563536163 -4.01725689693952e-06
outer loop
vertex 0.0243138217487033 13.8390402693576 2.5
vertex 2.33918087479569e-15 0.0757915653461902 12.0
vertex 0.0243138217487056 13.8390402693576 12.0
endloop
endfacet
facet normal -0.932729151227773 0.36057777309468 2.16873905724479e-16
outer loop
vertex 1.0005684755191 17.8634253362446 12.0
vertex 0.24753097597935 15.9154959845262 2.5
vertex 0.247530975979352 15.9154959845262 12.0
endloop
endfacet
facet normal -0.932729151227773 0.36057777309468 2.16873905724479e-16
outer loop
vertex 0.24753097597935 15.9154959845262 2.5
vertex 1.0005684755191 17.8634253362446 12.0
vertex 1.0005684755191 17.8634253362446 2.5
endloop
endfacet
facet normal 0.807622781186031 -0.589699451678005 -2.40364475096521e-16
outer loop
vertex 5.19390189276373 16.6336321295224 2.49999999999999
vertex 3.96236230905521 14.9469773074683 12.0
vertex 3.96236230905521 14.9469773074683 2.49999999999999
endloop
endfacet
facet normal 0.807622781186031 -0.589699451678005 -2.40364475096521e-16
outer loop
vertex 3.96236230905521 14.9469773074683 12.0
vertex 5.19390189276373 16.6336321295224 2.49999999999999
vertex 5.19390189276373 16.6336321295224 12.0
endloop
endfacet
facet normal 0.0 -1.0 0.0
outer loop
vertex 2.96691774358557 7.04991620636974e-16 12.0
vertex -7.04991620636974e-16 7.04991620636974e-16 2.5
vertex 2.96691774358557 7.04991620636974e-16 2.5
endloop
endfacet
facet normal 0.0 -1.0 0.0
outer loop
vertex -7.04991620636974e-16 7.04991620636974e-16 2.5
vertex 2.96691774358557 7.04991620636974e-16 12.0
vertex 1.61927762865055e-15 7.04991620636974e-16 12.0
endloop
endfacet
facet normal -0.994158946598714 0.107925562747002 -0.000248603052926527
outer loop
vertex 0.0243138217487063 13.9148318347038 12.0
vertex 0.0243138217487033 13.8390402693576 2.5
vertex 0.0243138217487056 13.8390402693576 12.0
endloop
endfacet
facet normal -0.994158946598714 0.107925562747002 -0.000248603052926527
outer loop
vertex 0.0243138217487033 13.8390402693576 2.5
vertex 0.0243138217487063 13.9148318347038 12.0
vertex 0.24753097597935 15.9154959845262 2.5
endloop
endfacet
facet normal -0.994158946598714 0.107925562747002 -0.000248603052926527
outer loop
vertex 0.24753097597935 15.9154959845262 2.5
vertex 0.0243138217487063 13.9148318347038 12.0
vertex 0.247530975979352 15.9154959845262 12.0
endloop
endfacet
facet normal -0.0 1.0 -0.0
outer loop
vertex 7.65684959820861 22.0 12.0
vertex 8.08504972848959 22.0 2.5
vertex 7.6568495982086 22.0 2.5
endloop
endfacet
facet normal -0.0 1.0 -0.0
outer loop
vertex 8.08504972848959 22.0 2.5
vertex 7.65684959820861 22.0 12.0
vertex 8.08504972848959 22.0 12.0
endloop
endfacet
facet normal -0.154095064073871 0.988056026360889 4.58617315582496e-17
outer loop
vertex 5.7680943159753 21.7054338433544 12.0
vertex 7.6568495982086 22.0 2.5
vertex 5.7680943159753 21.7054338433544 2.5
endloop
endfacet
facet normal -0.154095064073871 0.988056026360889 4.58617315582496e-17
outer loop
vertex 7.6568495982086 22.0 2.5
vertex 5.7680943159753 21.7054338433544 12.0
vertex 7.65684959820861 22.0 12.0
endloop
endfacet
facet normal -0.404572119343135 0.914506096343925 1.20408645434433e-16
outer loop
vertex 3.85822233969057 20.8605177118944 12.0
vertex 5.7680943159753 21.7054338433544 2.5
vertex 3.85822233969056 20.8605177118944 2.5
endloop
endfacet
facet normal -0.404572119343135 0.914506096343925 1.20408645434433e-16
outer loop
vertex 5.7680943159753 21.7054338433544 2.5
vertex 3.85822233969057 20.8605177118944 12.0
vertex 5.7680943159753 21.7054338433544 12.0
endloop
endfacet
facet normal -0.627478253266212 0.778634087153898 1.86749909108958e-16
outer loop
vertex 2.23210805922762 19.5500801582987 12.0
vertex 3.85822233969056 20.8605177118944 2.5
vertex 2.23210805922762 19.5500801582987 2.5
endloop
endfacet
facet normal -0.627478253266212 0.778634087153898 1.86749909108958e-16
outer loop
vertex 3.85822233969056 20.8605177118944 2.5
vertex 2.23210805922762 19.5500801582987 12.0
vertex 3.85822233969057 20.8605177118944 12.0
endloop
endfacet
facet normal 0.627478253266209 -0.7786340871539 -1.86749909108957e-16
outer loop
vertex 6.82001617322668 17.944069683118 12.0
vertex 5.19390189276373 16.6336321295224 2.49999999999999
vertex 6.82001617322667 17.944069683118 2.49999999999999
endloop
endfacet
facet normal 0.627478253266209 -0.7786340871539 -1.86749909108957e-16
outer loop
vertex 5.19390189276373 16.6336321295224 2.49999999999999
vertex 6.82001617322668 17.944069683118 12.0
vertex 5.19390189276373 16.6336321295224 12.0
endloop
endfacet
facet normal 0.404572119343135 -0.914506096343925 -1.20408645434433e-16
outer loop
vertex 8.72988814951141 18.7889858145781 12.0
vertex 6.82001617322667 17.944069683118 2.49999999999999
vertex 8.72988814951141 18.7889858145781 2.49999999999999
endloop
endfacet
facet normal 0.404572119343135 -0.914506096343925 -1.20408645434433e-16
outer loop
vertex 6.82001617322667 17.944069683118 2.49999999999999
vertex 8.72988814951141 18.7889858145781 12.0
vertex 6.82001617322668 17.944069683118 12.0
endloop
endfacet
facet normal 0.154095064073877 -0.988056026360888 -4.58617315582513e-17
outer loop
vertex 10.6186434317447 19.0835519712237 12.0
vertex 8.72988814951141 18.7889858145781 2.49999999999999
vertex 10.6186434317447 19.0835519712237 2.49999999999999
endloop
endfacet
facet normal 0.154095064073877 -0.988056026360888 -4.58617315582513e-17
outer loop
vertex 8.72988814951141 18.7889858145781 2.49999999999999
vertex 10.6186434317447 19.0835519712237 12.0
vertex 8.72988814951141 18.7889858145781 12.0
endloop
endfacet
facet normal 1.0 -1.55559889232088e-16 -2.42440557323122e-16
outer loop
vertex 22.0 22.0 2.5
vertex 22.0 19.0835519712237 4.99999999999999
vertex 22.0 19.0835519712237 2.5
endloop
endfacet
facet normal 1.0 -1.55559889232088e-16 -2.42440557323122e-16
outer loop
vertex 22.0 19.0835519712237 4.99999999999999
vertex 22.0 22.0 2.5
vertex 22.0 20.6835519712237 4.99999999999999
endloop
endfacet
facet normal 1.0 -1.55559889232088e-16 -2.42440557323122e-16
outer loop
vertex 22.0 20.6835519712237 4.99999999999999
vertex 22.0 22.0 2.5
vertex 22.0 20.6835519712237 9.49999999999999
endloop
endfacet
facet normal 1.0 -1.55559889232088e-16 -2.42440557323122e-16
outer loop
vertex 22.0 20.6835519712237 9.49999999999999
vertex 22.0 19.0835519712237 12.0
vertex 22.0 19.0835519712237 9.49999999999999
endloop
endfacet
facet normal 1.0 -1.55559889232088e-16 -2.42440557323122e-16
outer loop
vertex 22.0 19.0835519712237 12.0
vertex 22.0 20.6835519712237 9.49999999999999
vertex 22.0 22.0 12.0
endloop
endfacet
facet normal 1.0 -1.55559889232088e-16 -2.42440557323122e-16
outer loop
vertex 22.0 22.0 12.0
vertex 22.0 20.6835519712237 9.49999999999999
vertex 22.0 22.0 2.5
endloop
endfacet
facet normal 0.0 -1.0 0.0
outer loop
vertex 22.0 19.0835519712237 12.0
vertex 14.3 19.0835519712237 9.49999999999999
vertex 22.0 19.0835519712237 9.49999999999999
endloop
endfacet
facet normal 0.0 -1.0 0.0
outer loop
vertex 14.3 19.0835519712237 9.49999999999999
vertex 22.0 19.0835519712237 12.0
vertex 11.0468435620257 19.0835519712237 12.0
endloop
endfacet
facet normal 0.0 -1.0 0.0
outer loop
vertex 11.0468435620257 19.0835519712237 2.49999999999999
vertex 14.3 19.0835519712237 4.99999999999999
vertex 11.0468435620257 19.0835519712237 12.0
endloop
endfacet
facet normal 0.0 -1.0 0.0
outer loop
vertex 14.3 19.0835519712237 4.99999999999999
vertex 11.0468435620257 19.0835519712237 2.49999999999999
vertex 22.0 19.0835519712237 2.5
endloop
endfacet
facet normal 0.0 -1.0 0.0
outer loop
vertex 14.3 19.0835519712237 4.99999999999999
vertex 22.0 19.0835519712237 2.5
vertex 22.0 19.0835519712237 4.99999999999999
endloop
endfacet
facet normal 0.0 -1.0 0.0
outer loop
vertex 11.0468435620257 19.0835519712237 12.0
vertex 14.3 19.0835519712237 4.99999999999999
vertex 14.3 19.0835519712237 9.49999999999999
endloop
endfacet
facet normal -0.106883315157845 -0.994271571021152 3.18105835335193e-17
outer loop
vertex 11.0468435620257 19.0835519712237 12.0
vertex 10.7933632026468 19.1108008858336 2.49999999999999
vertex 11.0468435620257 19.0835519712237 2.49999999999999
endloop
endfacet
facet normal -0.106883315157845 -0.994271571021152 3.18105835335193e-17
outer loop
vertex 10.7933632026468 19.1108008858336 2.49999999999999
vertex 11.0468435620257 19.0835519712237 12.0
vertex 10.7933632026468 19.1108008858336 12.0
endloop
endfacet
facet normal 0.994271571021146 -0.106883315157892 -2.95144226210678e-16
outer loop
vertex 3.20932480951546 12.9990479557499 2.49999999999999
vertex 2.98610765528482 10.9225922405812 12.0
vertex 2.98610765528481 10.9225922405812 2.49999999999999
endloop
endfacet
facet normal 0.994271571021146 -0.106883315157892 -2.95144226210678e-16
outer loop
vertex 2.98610765528482 10.9225922405812 12.0
vertex 3.20932480951546 12.9990479557499 2.49999999999999
vertex 3.20932480951546 12.9990479557499 12.0
endloop
endfacet
facet normal -0.0 1.0 -0.0
outer loop
vertex 8.08504972848959 22.0 12.0
vertex 22.0 22.0 2.5
vertex 8.08504972848959 22.0 2.5
endloop
endfacet
facet normal -0.0 1.0 -0.0
outer loop
vertex 22.0 22.0 2.5
vertex 8.08504972848959 22.0 12.0
vertex 22.0 22.0 12.0
endloop
endfacet
facet normal -0.807622781186031 0.589699451678005 2.10318915709456e-16
outer loop
vertex 2.23210805922762 19.5500801582987 12.0
vertex 1.0005684755191 17.8634253362446 2.5
vertex 1.0005684755191 17.8634253362446 12.0
endloop
endfacet
facet normal -0.807622781186031 0.589699451678005 2.10318915709456e-16
outer loop
vertex 1.0005684755191 17.8634253362446 2.5
vertex 2.23210805922762 19.5500801582987 12.0
vertex 2.23210805922762 19.5500801582987 2.5
endloop
endfacet
facet normal 2.39877528818074e-16 -1.13378926718065e-16 1.0
outer loop
vertex 2.9670509018519 0.0757915653461898 12.0
vertex 0.0243138217487056 13.8390402693576 12.0
vertex 2.33918087479569e-15 0.0757915653461902 12.0
endloop
endfacet
facet normal 2.39877528818074e-16 -1.13378926718065e-16 1.0
outer loop
vertex 0.0243138217487056 13.8390402693576 12.0
vertex 2.9670509018519 0.0757915653461898 12.0
vertex 0.0243138217487063 13.9148318347038 12.0
endloop
endfacet
facet normal 2.39877528818074e-16 -1.13378926718065e-16 1.0
outer loop
vertex 0.0243138217487063 13.9148318347038 12.0
vertex 2.9670509018519 0.0757915653461898 12.0
vertex 0.247530975979352 15.9154959845262 12.0
endloop
endfacet
facet normal 2.39877528818074e-16 -1.13378926718065e-16 1.0
outer loop
vertex 0.247530975979352 15.9154959845262 12.0
vertex 2.9670509018519 0.0757915653461898 12.0
vertex 1.0005684755191 17.8634253362446 12.0
endloop
endfacet
facet normal 2.39877528818074e-16 -1.13378926718065e-16 1.0
outer loop
vertex 1.0005684755191 17.8634253362446 12.0
vertex 2.9670509018519 0.0757915653461898 12.0
vertex 2.23210805922762 19.5500801582987 12.0
endloop
endfacet
facet normal 2.39877528818074e-16 -1.13378926718065e-16 1.0
outer loop
vertex 2.23210805922762 19.5500801582987 12.0
vertex 2.9670509018519 0.0757915653461898 12.0
vertex 2.98610765528482 10.9225922405812 12.0
endloop
endfacet
facet normal 2.39877528818074e-16 -1.13378926718065e-16 1.0
outer loop
vertex 2.23210805922762 19.5500801582987 12.0
vertex 2.98610765528482 10.9225922405812 12.0
vertex 3.85822233969057 20.8605177118944 12.0
endloop
endfacet
facet normal 2.39877528818074e-16 -1.13378926718065e-16 1.0
outer loop
vertex 3.85822233969057 20.8605177118944 12.0
vertex 2.98610765528482 10.9225922405812 12.0
vertex 3.20932480951546 12.9990479557499 12.0
endloop
endfacet
facet normal 2.39877528818074e-16 -1.13378926718065e-16 1.0
outer loop
vertex 3.85822233969057 20.8605177118944 12.0
vertex 3.20932480951546 12.9990479557499 12.0
vertex 3.96236230905521 14.9469773074683 12.0
endloop
endfacet
facet normal 2.39877528818074e-16 -1.13378926718065e-16 1.0
outer loop
vertex 3.85822233969057 20.8605177118944 12.0
vertex 3.96236230905521 14.9469773074683 12.0
vertex 5.7680943159753 21.7054338433544 12.0
endloop
endfacet
facet normal 2.39877528818074e-16 -1.13378926718065e-16 1.0
outer loop
vertex 5.7680943159753 21.7054338433544 12.0
vertex 3.96236230905521 14.9469773074683 12.0
vertex 5.19390189276373 16.6336321295224 12.0
endloop
endfacet
facet normal 2.39877528818074e-16 -1.13378926718065e-16 1.0
outer loop
vertex 5.7680943159753 21.7054338433544 12.0
vertex 5.19390189276373 16.6336321295224 12.0
vertex 6.82001617322668 17.944069683118 12.0
endloop
endfacet
facet normal 2.39877528818074e-16 -1.13378926718065e-16 1.0
outer loop
vertex 5.7680943159753 21.7054338433544 12.0
vertex 6.82001617322668 17.944069683118 12.0
vertex 7.65684959820861 22.0 12.0
endloop
endfacet
facet normal 2.39877528818074e-16 -1.13378926718065e-16 1.0
outer loop
vertex 7.65684959820861 22.0 12.0
vertex 6.82001617322668 17.944069683118 12.0
vertex 8.72988814951141 18.7889858145781 12.0
endloop
endfacet
facet normal 2.39877528818074e-16 -1.13378926718065e-16 1.0
outer loop
vertex 7.65684959820861 22.0 12.0
vertex 8.72988814951141 18.7889858145781 12.0
vertex 8.08504972848959 22.0 12.0
endloop
endfacet
facet normal 2.39877528818074e-16 -1.13378926718065e-16 1.0
outer loop
vertex 8.08504972848959 22.0 12.0
vertex 8.72988814951141 18.7889858145781 12.0
vertex 22.0 22.0 12.0
endloop
endfacet
facet normal 2.39877528818074e-16 -1.13378926718065e-16 1.0
outer loop
vertex 22.0 22.0 12.0
vertex 8.72988814951141 18.7889858145781 12.0
vertex 10.6186434317447 19.0835519712237 12.0
endloop
endfacet
facet normal 2.39877528818074e-16 -1.13378926718065e-16 1.0
outer loop
vertex 22.0 22.0 12.0
vertex 10.6186434317447 19.0835519712237 12.0
vertex 10.7933632026468 19.1108008858336 12.0
endloop
endfacet
facet normal 2.39877528818074e-16 -1.13378926718065e-16 1.0
outer loop
vertex 22.0 22.0 12.0
vertex 10.7933632026468 19.1108008858336 12.0
vertex 11.0468435620257 19.0835519712237 12.0
endloop
endfacet
facet normal 2.39877528818074e-16 -1.13378926718065e-16 1.0
outer loop
vertex 22.0 22.0 12.0
vertex 11.0468435620257 19.0835519712237 12.0
vertex 22.0 19.0835519712237 12.0
endloop
endfacet
facet normal 0.154095064073807 -0.988056026360899 -4.57422999656309e-17
outer loop
vertex 10.7933632026468 19.1108008858336 12.0
vertex 10.6186434317447 19.0835519712237 2.49999999999999
vertex 10.7933632026468 19.1108008858336 2.49999999999999
endloop
endfacet
facet normal 0.154095064073807 -0.988056026360899 -4.57422999656309e-17
outer loop
vertex 10.6186434317447 19.0835519712237 2.49999999999999
vertex 10.7933632026468 19.1108008858336 12.0
vertex 10.6186434317447 19.0835519712237 12.0
endloop
endfacet
facet normal 0.932729151227773 -0.360577773094679 -2.77598599327333e-16
outer loop
vertex 3.96236230905521 14.9469773074683 2.49999999999999
vertex 3.20932480951546 12.9990479557499 12.0
vertex 3.20932480951546 12.9990479557499 2.49999999999999
endloop
endfacet
facet normal 0.932729151227773 -0.360577773094679 -2.77598599327333e-16
outer loop
vertex 3.20932480951546 12.9990479557499 12.0
vertex 3.96236230905521 14.9469773074683 2.49999999999999
vertex 3.96236230905521 14.9469773074683 12.0
endloop
endfacet
facet normal 0.999998456653257 -0.00175689814834065 -2.89852589007074e-16
outer loop
vertex 2.98610765528481 10.9225922405812 2.49999999999999
vertex 2.96691774358557 7.04991620636974e-16 12.0
vertex 2.96691774358557 7.04991620636974e-16 2.5
endloop
endfacet
facet normal 0.999998456653257 -0.00175689814834065 -2.89852589007074e-16
outer loop
vertex 2.96691774358557 7.04991620636974e-16 12.0
vertex 2.98610765528481 10.9225922405812 2.49999999999999
vertex 2.9670509018519 0.0757915653461898 12.0
endloop
endfacet
facet normal 0.999998456653257 -0.00175689814834065 -2.89852589007074e-16
outer loop
vertex 2.9670509018519 0.0757915653461898 12.0
vertex 2.98610765528481 10.9225922405812 2.49999999999999
vertex 2.98610765528482 10.9225922405812 12.0
endloop
endfacet
facet normal -2.05853583641537e-16 1.56393414922394e-16 -1.0
outer loop
vertex 0.0243138217487033 13.8390402693576 2.5
vertex 2.96691774358557 7.04991620636974e-16 2.5
vertex -7.04991620636974e-16 7.04991620636974e-16 2.5
endloop
endfacet
facet normal -2.05853583641537e-16 1.56393414922394e-16 -1.0
outer loop
vertex 2.96691774358557 7.04991620636974e-16 2.5
vertex 0.0243138217487033 13.8390402693576 2.5
vertex 0.24753097597935 15.9154959845262 2.5
endloop
endfacet
facet normal -2.05853583641537e-16 1.56393414922394e-16 -1.0
outer loop
vertex 2.96691774358557 7.04991620636974e-16 2.5
vertex 0.24753097597935 15.9154959845262 2.5
vertex 1.0005684755191 17.8634253362446 2.5
endloop
endfacet
facet normal -2.05853583641537e-16 1.56393414922394e-16 -1.0
outer loop
vertex 2.96691774358557 7.04991620636974e-16 2.5
vertex 1.0005684755191 17.8634253362446 2.5
vertex 2.23210805922762 19.5500801582987 2.5
endloop
endfacet
facet normal -2.05853583641537e-16 1.56393414922394e-16 -1.0
outer loop
vertex 2.96691774358557 7.04991620636974e-16 2.5
vertex 2.23210805922762 19.5500801582987 2.5
vertex 2.98610765528481 10.9225922405812 2.49999999999999
endloop
endfacet
facet normal -2.05853583641537e-16 1.56393414922394e-16 -1.0
outer loop
vertex 2.98610765528481 10.9225922405812 2.49999999999999
vertex 2.23210805922762 19.5500801582987 2.5
vertex 3.85822233969056 20.8605177118944 2.5
endloop
endfacet
facet normal -2.05853583641537e-16 1.56393414922394e-16 -1.0
outer loop
vertex 2.98610765528481 10.9225922405812 2.49999999999999
vertex 3.85822233969056 20.8605177118944 2.5
vertex 3.20932480951546 12.9990479557499 2.49999999999999
endloop
endfacet
facet normal -2.05853583641537e-16 1.56393414922394e-16 -1.0
outer loop
vertex 3.20932480951546 12.9990479557499 2.49999999999999
vertex 3.85822233969056 20.8605177118944 2.5
vertex 3.96236230905521 14.9469773074683 2.49999999999999
endloop
endfacet
facet normal -2.05853583641537e-16 1.56393414922394e-16 -1.0
outer loop
vertex 3.96236230905521 14.9469773074683 2.49999999999999
vertex 3.85822233969056 20.8605177118944 2.5
vertex 5.7680943159753 21.7054338433544 2.5
endloop
endfacet
facet normal -2.05853583641537e-16 1.56393414922394e-16 -1.0
outer loop
vertex 3.96236230905521 14.9469773074683 2.49999999999999
vertex 5.7680943159753 21.7054338433544 2.5
vertex 5.19390189276373 16.6336321295224 2.49999999999999
endloop
endfacet
facet normal -2.05853583641537e-16 1.56393414922394e-16 -1.0
outer loop
vertex 5.19390189276373 16.6336321295224 2.49999999999999
vertex 5.7680943159753 21.7054338433544 2.5
vertex 6.82001617322667 17.944069683118 2.49999999999999
endloop
endfacet
facet normal -2.05853583641537e-16 1.56393414922394e-16 -1.0
outer loop
vertex 6.82001617322667 17.944069683118 2.49999999999999
vertex 5.7680943159753 21.7054338433544 2.5
vertex 7.6568495982086 22.0 2.5
endloop
endfacet
facet normal -2.05853583641537e-16 1.56393414922394e-16 -1.0
outer loop
vertex 6.82001617322667 17.944069683118 2.49999999999999
vertex 7.6568495982086 22.0 2.5
vertex 8.72988814951141 18.7889858145781 2.49999999999999
endloop
endfacet
facet normal -2.05853583641537e-16 1.56393414922394e-16 -1.0
outer loop
vertex 8.72988814951141 18.7889858145781 2.49999999999999
vertex 7.6568495982086 22.0 2.5
vertex 8.08504972848959 22.0 2.5
endloop
endfacet
facet normal -2.05853583641537e-16 1.56393414922394e-16 -1.0
outer loop
vertex 8.72988814951141 18.7889858145781 2.49999999999999
vertex 8.08504972848959 22.0 2.5
vertex 22.0 22.0 2.5
endloop
endfacet
facet normal -2.05853583641537e-16 1.56393414922394e-16 -1.0
outer loop
vertex 8.72988814951141 18.7889858145781 2.49999999999999
vertex 22.0 22.0 2.5
vertex 10.6186434317447 19.0835519712237 2.49999999999999
endloop
endfacet
facet normal -2.05853583641537e-16 1.56393414922394e-16 -1.0
outer loop
vertex 10.6186434317447 19.0835519712237 2.49999999999999
vertex 22.0 22.0 2.5
vertex 10.7933632026468 19.1108008858336 2.49999999999999
endloop
endfacet
facet normal -2.05853583641537e-16 1.56393414922394e-16 -1.0
outer loop
vertex 10.7933632026468 19.1108008858336 2.49999999999999
vertex 22.0 22.0 2.5
vertex 11.0468435620257 19.0835519712237 2.49999999999999
endloop
endfacet
facet normal -2.05853583641537e-16 1.56393414922394e-16 -1.0
outer loop
vertex 11.0468435620257 19.0835519712237 2.49999999999999
vertex 22.0 22.0 2.5
vertex 22.0 19.0835519712237 2.5
endloop
endfacet
facet normal 0.0 0.0 -1.0
outer loop
vertex 0.247530975979353 15.9912875498724 12.0
vertex 1.0005684755191 17.8634253362446 12.0
vertex 0.247530975979352 15.9154959845262 12.0
endloop
endfacet
facet normal 0.0 0.0 -1.0
outer loop
vertex 1.0005684755191 17.8634253362446 12.0
vertex 0.247530975979353 15.9912875498724 12.0
vertex 1.0005684755191 17.9392169015908 12.0
endloop
endfacet
facet normal 0.0 0.0 -1.0
outer loop
vertex 1.0005684755191 17.8634253362446 12.0
vertex 1.0005684755191 17.9392169015908 12.0
vertex 2.23210805922762 19.5500801582987 12.0
endloop
endfacet
facet normal 0.0 0.0 -1.0
outer loop
vertex 2.23210805922762 19.5500801582987 12.0
vertex 1.0005684755191 17.9392169015908 12.0
vertex 2.23210805922762 19.6258717236449 12.0
endloop
endfacet
facet normal 0.0 0.0 -1.0
outer loop
vertex 2.23210805922762 19.5500801582987 12.0
vertex 2.23210805922762 19.6258717236449 12.0
vertex 3.85822233969057 20.8605177118944 12.0
endloop
endfacet
facet normal 0.0 0.0 -1.0
outer loop
vertex 3.85822233969057 20.8605177118944 12.0
vertex 2.23210805922762 19.6258717236449 12.0
vertex 3.85822233969057 20.9363092772405 12.0
endloop
endfacet
facet normal 0.0 0.0 -1.0
outer loop
vertex 3.85822233969057 20.8605177118944 12.0
vertex 3.85822233969057 20.9363092772405 12.0
vertex 5.7680943159753 21.7054338433544 12.0
endloop
endfacet
facet normal 0.0 0.0 -1.0
outer loop
vertex 5.7680943159753 21.7054338433544 12.0
vertex 3.85822233969057 20.9363092772405 12.0
vertex 5.7680943159753 21.7812254087006 12.0
endloop
endfacet
facet normal 0.0 0.0 -1.0
outer loop
vertex 5.7680943159753 21.7054338433544 12.0
vertex 5.7680943159753 21.7812254087006 12.0
vertex 7.65684959820861 22.0 12.0
endloop
endfacet
facet normal 0.0 0.0 -1.0
outer loop
vertex 7.65684959820861 22.0 12.0
vertex 5.7680943159753 21.7812254087006 12.0
vertex 7.65684959820861 22.0757915653462 12.0
endloop
endfacet
facet normal 0.0 0.0 -1.0
outer loop
vertex 7.65684959820861 22.0 12.0
vertex 7.65684959820861 22.0757915653462 12.0
vertex 8.08504972848959 22.0757915653462 12.0
endloop
endfacet
facet normal 0.0 0.0 -1.0
outer loop
vertex 7.65684959820861 22.0 12.0
vertex 8.08504972848959 22.0757915653462 12.0
vertex 8.08504972848959 22.0 12.0
endloop
endfacet
facet normal 0.0 0.0 -1.0
outer loop
vertex 8.08504972848959 22.0 12.0
vertex 8.08504972848959 22.0757915653462 12.0
vertex 22.0 22.0757915653462 12.0
endloop
endfacet
facet normal 0.0 0.0 -1.0
outer loop
vertex 8.08504972848959 22.0 12.0
vertex 22.0 22.0757915653462 12.0
vertex 22.0 22.0 12.0
endloop
endfacet
facet normal 1.0 0.0 0.0
outer loop
vertex 14.3 20.6835519712237 4.99999999999999
vertex 14.3 19.0835519712237 9.49999999999999
vertex 14.3 19.0835519712237 4.99999999999999
endloop
endfacet
facet normal 1.0 0.0 0.0
outer loop
vertex 14.3 19.0835519712237 9.49999999999999
vertex 14.3 20.6835519712237 4.99999999999999
vertex 14.3 20.6835519712237 9.49999999999999
endloop
endfacet
facet normal -0.0 -0.0 1.0
outer loop
vertex 22.0 19.0835519712237 4.99999999999999
vertex 14.3 20.6835519712237 4.99999999999999
vertex 14.3 19.0835519712237 4.99999999999999
endloop
endfacet
facet normal -0.0 -0.0 1.0
outer loop
vertex 14.3 20.6835519712237 4.99999999999999
vertex 22.0 19.0835519712237 4.99999999999999
vertex 22.0 20.6835519712237 4.99999999999999
endloop
endfacet
facet normal -0.0 -1.0 0.0
outer loop
vertex 22.0 20.6835519712237 9.49999999999999
vertex 14.3 20.6835519712237 4.99999999999999
vertex 22.0 20.6835519712237 4.99999999999999
endloop
endfacet
facet normal -0.0 -1.0 0.0
outer loop
vertex 14.3 20.6835519712237 4.99999999999999
vertex 22.0 20.6835519712237 9.49999999999999
vertex 14.3 20.6835519712237 9.49999999999999
endloop
endfacet
facet normal -0.0 -0.0 -1.0
outer loop
vertex 22.0 20.6835519712237 9.49999999999999
vertex 14.3 19.0835519712237 9.49999999999999
vertex 14.3 20.6835519712237 9.49999999999999
endloop
endfacet
facet normal -0.0 -0.0 -1.0
outer loop
vertex 14.3 19.0835519712237 9.49999999999999
vertex 22.0 20.6835519712237 9.49999999999999
vertex 22.0 19.0835519712237 9.49999999999999
endloop
endfacet
endsolid iPhone Ball Lens Holder v2
